<svg xmlns="http://www.w3.org/2000/svg" viewBox="0 0 592.98 679.53"><defs><style>.cls-1{fill:#ddd2f3;}.cls-2{fill:#e3707f;}.cls-3{fill:#8aa9fc;}.cls-4{fill:#6e3281;}.cls-5{fill:#edc483;}.cls-6{fill:#251a51;}.cls-7{fill:#f6aea6;}.cls-8{fill:#e4e1ea;}.cls-9{opacity:0.18;}.cls-10{opacity:0.13;}.cls-11{fill:#6338a1;}.cls-12{fill:#e8947e;}.cls-13{fill:#f9f2fc;}</style></defs><g id="Layer_2" data-name="Layer 2"><g id="Objects"><circle class="cls-1" cx="410.8" cy="190.02" r="170.38"/><path class="cls-2" d="M427.14,25.66a32.68,32.68,0,0,1,16.08-1.08c5.3,1.14,10.32,4.25,13,9,3.07,5.39,2.78,12,2.4,18.17Q457.21,75,455.79,98.23c-.26,4.3-.5,8.78,1.17,12.75s5.86,7.24,10.08,6.37c2.15-.45,4-1.86,6-2.68s4.76-.86,6,.93a5.44,5.44,0,0,1,.65,3.77,18.4,18.4,0,0,1-9.21,13.87c3-1.44,6.68,1.56,6.73,4.85s-2.61,6.14-5.66,7.36-6.46,1.19-9.75,1.12c2.71.05,4.8,3,4.54,5.64a7.75,7.75,0,0,1-4.9,6,16.57,16.57,0,0,1-8,.85,30.2,30.2,0,0,1-16-6c-7.9-6.24-11.1-16.91-11.21-27s2.4-20,3.8-29.94c3.26-23.14.6-46.65-2.07-69.87l1.94-.58"/><path class="cls-3" d="M458,371.59c-6.28,6-8.67,15.43-2.68,22.68,5.64,6.82,16.57,8.27,23.61,2.83,17-13.14-.72-37.37-19.08-32.35-3.4.93-2.55,5.77.81,6,5.37.31,11.11.51,15.4,4.28,4.61,4,4.71,10.88.93,15.52-10,12.31-27.39-5.81-16.88-16.82a1.49,1.49,0,0,0-2.11-2.1Z"/><path class="cls-4" d="M263.59,304.64c-2.38-2.52-5-4.46-6.2-7.84-2.38-6.72,2.17-10.06,7.5-12.57s9.82-5.52,11.43-11.66c2.52-9.59-5.64-21.42-16.08-18.58-3.38.93-2.38,5.24-.07,6.57,3.23,1.87,7.56,2.93,8.11,7.38.72,5.95-5.14,7.65-9.24,9.79a17.52,17.52,0,0,0-9.19,10.73c-2.42,8.39,2.59,19.79,12.39,19.31a2,2,0,0,0,1.35-3.13Z"/><path class="cls-5" d="M231.41,407.42c.86,5.56,6.63,17.33,12.71,18.95,3.24.87,5.65-1.26,8.16-3,4.57-3.15,9.08-6.37,13.6-9.59,1.65-1.17,2.62-3.42,1.4-5.31l-12-18.46c-1.07-1.64-3.53-2.65-5.31-1.39-5,3.52-10.39,6.78-14.89,10.92-3.09,2.85.85,7.52,4.37,5.65,5.1-2.7,9.73-6.54,14.44-9.87l-5.31-1.39,12,18.46q.71-2.65,1.39-5.31c-2.71,1.93-5.43,3.85-8.13,5.79-1.53,1.1-6.66,5.9-8.37,5.71-1.52-.17-4.73-5.61-5.66-6.72a31,31,0,0,0-6.2-6.13c-1.19-.81-2.37.53-2.19,1.68Z"/><path class="cls-5" d="M507.43,154.71c.86,5.55,6.63,17.32,12.71,18.95,3.24.86,5.64-1.27,8.16-3,4.57-3.15,9.08-6.37,13.6-9.59,1.65-1.17,2.62-3.42,1.39-5.31l-12-18.46c-1.07-1.64-3.53-2.65-5.31-1.39-5,3.53-10.39,6.78-14.89,10.92-3.09,2.85.85,7.52,4.37,5.66,5.1-2.71,9.72-6.54,14.44-9.88l-5.31-1.39,12,18.46q.7-2.66,1.39-5.31c-2.71,1.93-5.43,3.85-8.13,5.79-1.53,1.1-6.66,5.9-8.37,5.71-1.52-.17-4.73-5.61-5.67-6.72a31,31,0,0,0-6.19-6.13c-1.2-.81-2.37.53-2.19,1.69Z"/><path class="cls-2" d="M531.17,255c-10.4,4.83-20.62,9.94-30.82,15.17a3.45,3.45,0,0,0-.94,5.82c7.47,7.74,14.85,15.49,22.88,22.65a3.19,3.19,0,0,0,4.86-1.18c5-10.89,12.55-25.73,10.48-38.08-.52-3.14-5.32-4.57-6.6-1.07-2,5.48-2,11.63-3.29,17.33a89.94,89.94,0,0,1-6.35,19.27l5.43-.57c-7.33-8.29-15.25-15.92-23.17-23.63,0,1.79-.09,3.59-.13,5.39,10-5.62,19.9-11.32,29.67-17.31,2.07-1.27.2-4.82-2-3.79Z"/><path class="cls-2" d="M338.59,398.31c7.54-8.39,15.17-17.73,21.07-27.36,1.86-3-2.73-6.52-5.07-3.75-7.31,8.63-13.8,18.78-19.4,28.59-1.19,2.08,1.77,4.34,3.4,2.52Z"/><path class="cls-6" d="M591.1,99.87l-.58-.51c-2.53-2.24-6.68-2.68-9.14,0a6.62,6.62,0,0,0,0,9.15l.51.58c2.26,2.56,6.93,2.48,9.21,0s2.73-6.81,0-9.22Z"/><path class="cls-6" d="M295,342.9l-.58-.51c-2.53-2.24-6.68-2.68-9.14,0a6.62,6.62,0,0,0,0,9.15l.5.57a6.56,6.56,0,0,0,9.22,0c2.27-2.47,2.73-6.8,0-9.21Z"/><path class="cls-7" d="M381.25,136.92l-113,42.38L279,133.65l-29.4-7.47S218,215.42,240,217.8c38.44,4.18,96.61-11,96.61-11Z"/><path class="cls-6" d="M342,239.26l.26,89.4c29.44,36.19,131.91-10.61,131.91-10.61l1.2-36.56,2.38-87.08c-2.36-34.69-34.57-51.71-34.57-51.71-13.32-6.63-33.63-10.4-51.92-9.5-19.1,1-23.82,10.09-31.69,27.52C353.21,174.8,342,188,342,239.26Z"/><path class="cls-7" d="M438.62,49l-1.35,17.88s15.2,2,10.86,15.91-14.73,7.8-14.73,7.8-2.6,35.53-39,24.27c-29-9-27.19-46.48-23.52-78.45a21.41,21.41,0,0,1,25.38-18.52l21.88,4.26A25.39,25.39,0,0,1,438.62,49Z"/><path class="cls-7" d="M437.27,81.7,427.46,134A21,21,0,0,1,402,150.53h0a21,21,0,0,1-15.79-24.07l5.32-30Z"/><path class="cls-6" d="M397,82.29a.91.91,0,0,1-.13.34,1.45,1.45,0,0,1-.84.69,1.88,1.88,0,0,1-1.66-.37,3.38,3.38,0,0,1-1.23-1.89,16.66,16.66,0,0,1-.26-5.74c.13-2.15.27-4.5.41-7,.31-4.95.62-9.43.87-12.67.13-1.54.24-2.83.33-3.83a6.34,6.34,0,0,1,.19-1.4,9,9,0,0,1,0,1.41c0,1-.1,2.3-.16,3.85-.15,3.24-.41,7.72-.72,12.67-.16,2.47-.31,4.82-.45,7A17.38,17.38,0,0,0,393.5,81c.34,1.56,1.65,2.41,2.49,2.16a1.5,1.5,0,0,0,.8-.54C396.92,82.39,397,82.28,397,82.29Z"/><path class="cls-6" d="M385.2,111.19a7.09,7.09,0,0,1,1.24.76,35.34,35.34,0,0,0,3.45,1.92,29.93,29.93,0,0,0,25.17.53,30.16,30.16,0,0,0,3.52-1.78,9.53,9.53,0,0,1,1.27-.7,7,7,0,0,1-1.16.88,27.26,27.26,0,0,1-3.48,1.94,28.9,28.9,0,0,1-25.48-.54,26.05,26.05,0,0,1-3.4-2.09A6.68,6.68,0,0,1,385.2,111.19Z"/><path class="cls-6" d="M392.31,89.62a16.79,16.79,0,0,0,2.33,1.65,8.31,8.31,0,0,0,11.55-3.71,18.89,18.89,0,0,0,.93-2.69,2.14,2.14,0,0,1,0,.78,7.68,7.68,0,0,1-.59,2.07,8.36,8.36,0,0,1-12.06,3.87,7.45,7.45,0,0,1-1.68-1.33A2.13,2.13,0,0,1,392.31,89.62Z"/><path class="cls-6" d="M438.41,84.51a13.08,13.08,0,0,0,2.08-.63,2.76,2.76,0,0,0,1.43-1.62,1.65,1.65,0,0,0-.84-2.15,1.34,1.34,0,0,0-1.61.39l-.44-.23a34.5,34.5,0,0,1,2.43-4.86,34.63,34.63,0,0,1-2,5.06l-.45-.23a1.84,1.84,0,0,1,2.23-.62,1.91,1.91,0,0,1,1.16,1.24,2.47,2.47,0,0,1-.05,1.55,3.08,3.08,0,0,1-1.74,1.81,4.63,4.63,0,0,1-1.62.35C438.62,84.58,438.41,84.54,438.41,84.51Z"/><path class="cls-6" d="M410.39,49.27a6.51,6.51,0,0,1,7.31,1.92,16.77,16.77,0,0,0-3.48-1.62A17.24,17.24,0,0,0,410.39,49.27Z"/><path class="cls-6" d="M378.92,44.29a6.56,6.56,0,0,1,4.26-.82A6.67,6.67,0,0,1,387.24,45a23.14,23.14,0,0,0-4.1-1A21.66,21.66,0,0,0,378.92,44.29Z"/><path class="cls-2" d="M437.27,66.86c-10.16-9.9-13.15-26.4-15.91-40.32a35.54,35.54,0,0,1-33.19,4.32,53.26,53.26,0,0,1-11.83,10.33c-1.25.81-2.74,1.59-4.17,1.16-1.71-.51-2.47-2.47-2.87-4.2a29.81,29.81,0,0,1,.59-16.85A20.27,20.27,0,0,1,381.2,9.17c5.68-2.2,12.07-1.24,18,.29a99.63,99.63,0,0,1,25.37,10.48c7.77,4.55,15.24,10.58,18.54,19s3.28,24.68-4.67,28.92"/><path class="cls-6" d="M377.29,136.54c9.84-3.91-65.81,24.18-65.81,24.18l7.67,51.75L347.93,203Z"/><path class="cls-7" d="M276.88,136.54s19.75-27.6,16.23-27.58-5.36,5.21-12.19,8.76c0,0,10.91-34.51,7.53-33.79s-11.43,22.88-12,22.86,6.95-24.85,4.15-25.15S271,104.42,271,104.42s4.7-22,1.73-22.44-7.34,19.73-7.34,19.73,3.5-17,.8-17.39c-1.65-.26-16.55,41.86-16.55,41.86.39,0,27.27,10.36,27.27,10.36"/><path class="cls-6" d="M429.58,234.86a1,1,0,0,1-.06-.27c0-.2-.07-.46-.11-.78-.09-.73-.22-1.74-.38-3-.31-2.66-.76-6.45-1.3-11.11-1.05-9.42-2.49-22.37-4.08-36.67a41.86,41.86,0,0,1,0-10.55,19,19,0,0,1,3.85-9,22.69,22.69,0,0,1,6.79-5.74,26.49,26.49,0,0,1,7.27-2.71,36.82,36.82,0,0,1,11.17-.56c1.31.12,2.33.28,3,.39l.77.15a1,1,0,0,1,.27.06.82.82,0,0,1-.27,0l-.79-.1c-.69-.07-1.71-.2-3-.29a38.54,38.54,0,0,0-11.07.72,26.23,26.23,0,0,0-7.14,2.73,22.55,22.55,0,0,0-6.63,5.66,18.49,18.49,0,0,0-3.71,8.81,41.31,41.31,0,0,0,0,10.42c1.53,14.31,2.92,27.26,3.93,36.68.47,4.67.86,8.46,1.13,11.13.12,1.28.21,2.3.28,3,0,.32.05.58.06.79A1.37,1.37,0,0,1,429.58,234.86Z"/><path class="cls-6" d="M426.91,231.59c0-.14,13.74,1.19,30.66,3s30.64,3.36,30.62,3.51-13.74-1.2-30.67-3S426.89,231.73,426.91,231.59Z"/><polygon class="cls-4" points="337.42 4.37 337.42 63.59 297.86 63.59 296.6 86.05 273.34 62.29 186.23 62.29 193.9 0 337.42 4.37"/><path class="cls-8" d="M323.9,21.57c-38.95-.43-78-.71-117-.06a.15.15,0,0,0,0,.29c38.94.65,78,.37,117-.06.1,0,.1-.17,0-.17Z"/><path class="cls-8" d="M323.9,32.94c-38.95-.43-78-.71-117-.06a.15.15,0,0,0,0,.29c38.94.66,78,.38,117-.06.1,0,.1-.17,0-.17Z"/><path class="cls-8" d="M323.9,44.93c-23.91-.33-48-.58-71.89-.06a.15.15,0,0,0,0,.29c23.9.52,48,.26,71.89-.06.1,0,.1-.17,0-.17Z"/><path class="cls-6" d="M382.18,60.34c-.13.07-.67-.75-1.53-1.55S379,57.5,379,57.36s1.07.17,2,1S382.31,60.29,382.18,60.34Z"/><path class="cls-6" d="M412.55,63.83a18,18,0,0,1-1.73-2.35,17.43,17.43,0,0,1-1.77-2.32,5.62,5.62,0,0,1,2.19,2A5.52,5.52,0,0,1,412.55,63.83Z"/><g class="cls-9"><path class="cls-6" d="M405.61,89.85c.21.69-1.12,1.71-3,2.29s-3.54.49-3.75-.2,1.12-1.71,3-2.29S405.39,89.16,405.61,89.85Z"/></g><g class="cls-10"><path class="cls-6" d="M423.93,70.89c0,.72-3.72,1.33-8.31,1.36s-8.33-.52-8.33-1.24,3.71-1.33,8.31-1.36S423.92,70.17,423.93,70.89Z"/></g><g class="cls-10"><path class="cls-6" d="M389.65,73.31c0,.72-3.72,1.33-8.31,1.37S373,74.15,373,73.43s3.71-1.32,8.31-1.36S389.64,72.6,389.65,73.31Z"/></g><path class="cls-11" d="M439.31,42.7s.19-.25.39-.73a3.54,3.54,0,0,0,0-2.19,12.87,12.87,0,0,0-1.36-3.09c-.61-1.16-1.27-2.41-2-3.72-1.38-2.64-2.61-5-3.48-6.8a18.05,18.05,0,0,1-1.3-2.89A20.18,20.18,0,0,1,433.24,26c.95,1.71,2.23,4.09,3.61,6.74.69,1.31,1.34,2.57,1.94,3.73a11.94,11.94,0,0,1,1.29,3.23,3.48,3.48,0,0,1-.2,2.35C439.6,42.55,439.32,42.72,439.31,42.7Z"/><polygon class="cls-3" points="350.97 213.76 344.26 302.94 437.19 315.39 430.91 212.47 350.97 213.76"/><polyline class="cls-3" points="358.37 153.32 358.37 224.04 369.22 219.98 369.22 139.38 358.37 142.68"/><path class="cls-3" d="M444.48,143.45s-42,5.41-29.55,74l10.51,1.12s-11.86-64.4,27.58-69Z"/><path class="cls-7" d="M432.12,223s14.32,84.4-5.88,82.33c-66.44-6.84-106-7.76-106-7.76l-11,22.87c-.25,3.9,125.83,40,146.09,28.05,14.3-8.42,37.09-31.12,26.75-98.94l-2.45-22.74Z"/><path class="cls-6" d="M469,167s15.5,14.88,19,71.19l-60-6.63S418,135.67,469,167Z"/><path class="cls-7" d="M327.22,297.59s-32.51-10.2-31.4-6.85,6.65,3.48,12.18,8.89c0,0-36.34.4-34.59,3.39s25.4,3.75,25.54,4.26-25.87,1.15-25.29,3.92,24.77,2.09,24.77,2.09-22.42,2.38-22,5.37,21.13.83,21.13.83-17.3,2-16.85,4.68c.27,1.65,50.64,2,50.75,3.24.05.63-4.28-29.82-4.28-29.82"/><path class="cls-6" d="M368.69,214.22a5.25,5.25,0,0,1,.25,1.07,21,21,0,0,1,.31,3,8.72,8.72,0,0,1-1,4.37,6.27,6.27,0,0,1-1.75,2.05,4.59,4.59,0,0,1-2.75.94,6,6,0,0,1-4.71-2.71,9.49,9.49,0,0,1-1.52-4.21,20,20,0,0,1-.18-3,4.12,4.12,0,0,1,.07-1.09c.1,0,.08,1.56.47,4a9.51,9.51,0,0,0,1.55,4,5.64,5.64,0,0,0,4.32,2.47,4.88,4.88,0,0,0,4.08-2.7,8.8,8.8,0,0,0,1-4.14c0-1.24-.09-2.25-.14-3A4,4,0,0,1,368.69,214.22Z"/><path class="cls-6" d="M362.1,215.63a2.42,2.42,0,0,0-.36,1.26,1.54,1.54,0,0,0,.61,1.15,1.43,1.43,0,0,0,2.11-1.41,1.56,1.56,0,0,0-.83-1,2.44,2.44,0,0,0-1.3-.15s.08-.14.33-.23a1.74,1.74,0,0,1,1.12,0,1.89,1.89,0,0,1,1.15,1.23,1.88,1.88,0,0,1-2.86,1.91,1.84,1.84,0,0,1-.69-1.53,1.62,1.62,0,0,1,.38-1.05C361.94,215.66,362.09,215.61,362.1,215.63Z"/><path class="cls-6" d="M424.39,212.77s.15.21.26.65a4.3,4.3,0,0,1,0,1.91,5.36,5.36,0,0,1-1.38,2.48,4.52,4.52,0,0,1-6.43.27,5.37,5.37,0,0,1-1.58-2.36,4.29,4.29,0,0,1-.21-1.9c.07-.44.17-.67.2-.66a6.75,6.75,0,0,0,.35,2.44,5.39,5.39,0,0,0,1.55,2.11,4.4,4.4,0,0,0,2.94,1.06,4.46,4.46,0,0,0,2.84-1.3,5.42,5.42,0,0,0,1.37-2.24A6.61,6.61,0,0,0,424.39,212.77Z"/><path class="cls-6" d="M417.64,210.29c-.05,0,.5-.55,1.62-.45a2.35,2.35,0,0,1,1.67.9,2,2,0,0,1,0,2.33,1.8,1.8,0,0,1-2.18.82,1.7,1.7,0,0,1-.89-1.7,1.41,1.41,0,0,1,.62-1.13c.28-.15.46-.11.46-.09s-.15.08-.34.25a1.29,1.29,0,0,0-.37,1,1.35,1.35,0,0,0,.71,1.25,1.32,1.32,0,0,0,1.55-.67,1.53,1.53,0,0,0,0-1.76,2.13,2.13,0,0,0-1.35-.82A4.64,4.64,0,0,0,417.64,210.29Z"/><path class="cls-6" d="M415.87,248.48c-.15,0-.3-.43-.35-1s0-1,.17-1,.3.41.35,1S416,248.48,415.87,248.48Z"/><path class="cls-6" d="M415.73,252.47c-.14,0-.22-.47-.18-1s.18-1,.33-1,.23.46.19,1S415.88,252.49,415.73,252.47Z"/><path class="cls-6" d="M415,256.4c-.14,0-.15-.5,0-1s.33-.94.47-.91.16.49,0,1S415.13,256.44,415,256.4Z"/><path class="cls-6" d="M413.67,260.18c-.13-.06-.08-.52.12-1s.47-.89.61-.84.08.51-.12,1S413.8,260.23,413.67,260.18Z"/><path class="cls-6" d="M411.82,263.73c-.12-.08,0-.53.27-1s.59-.81.72-.75,0,.52-.27,1S412,263.8,411.82,263.73Z"/><path class="cls-6" d="M409.48,267c-.11-.09.08-.52.41-1s.71-.71.82-.63-.06.51-.41.95S409.59,267.06,409.48,267Z"/><path class="cls-6" d="M406.68,269.82c-.09-.11.16-.5.55-.87s.8-.6.91-.5-.14.49-.55.88S406.78,269.93,406.68,269.82Z"/><path class="cls-6" d="M403.48,272.2c-.08-.12.23-.47.68-.78s.88-.46,1-.34-.22.46-.68.78S403.55,272.33,403.48,272.2Z"/><path class="cls-6" d="M399.92,274c-.05-.14.3-.43.8-.66s.95-.31,1-.18-.29.42-.79.65S400,274.16,399.92,274Z"/><path class="cls-6" d="M396.12,275.27c0-.14.37-.38.89-.53s1-.16,1,0-.36.37-.89.52S396.16,275.41,396.12,275.27Z"/><path class="cls-6" d="M392.18,275.92c0-.14.42-.32,1-.39s1,0,1,.14-.4.31-1,.38S392.19,276.06,392.18,275.92Z"/><path class="cls-6" d="M388.18,276c0-.14.46-.25,1-.24s1,.14,1,.28-.45.25-1,.24S388.17,276.14,388.18,276Z"/><path class="cls-6" d="M384.21,275.49c0-.14.49-.18,1-.1s1,.28.94.42-.47.19-1,.1S384.18,275.63,384.21,275.49Z"/><path class="cls-6" d="M380.36,274.41c.05-.13.51-.11,1,.06s.91.41.87.55-.5.12-1-.06S380.31,274.55,380.36,274.41Z"/><path class="cls-6" d="M376.72,272.76c.07-.12.52,0,1,.22s.83.55.78.68-.51,0-1-.22S376.65,272.89,376.72,272.76Z"/><path class="cls-6" d="M373.39,270.55c.09-.11.52.06,1,.39s.74.66.66.78-.52,0-1-.36S373.3,270.66,373.39,270.55Z"/><path class="cls-6" d="M370.47,267.83c.11-.1.5.13.89.52s.61.79.52.89-.5-.13-.89-.52S370.36,267.92,370.47,267.83Z"/><path class="cls-6" d="M368,264.68c.12-.08.48.22.8.66s.49.87.38,1-.47-.2-.8-.65S367.88,264.76,368,264.68Z"/><path class="cls-6" d="M366,261.21c.13-.06.45.28.7.76s.35.94.23,1-.44-.27-.69-.77S365.89,261.27,366,261.21Z"/><path class="cls-6" d="M364.57,257.48c.14,0,.39.34.57.86s.22,1,.09,1-.39-.33-.58-.86S364.43,257.52,364.57,257.48Z"/><path class="cls-6" d="M363.67,253.58c.14,0,.34.4.44.93s.08,1-.06,1-.34-.38-.45-.93S363.53,253.6,363.67,253.58Z"/><path class="cls-6" d="M363.36,249.6c.14,0,.27.44.3,1s-.08,1-.22,1-.28-.43-.3-1S363.21,249.59,363.36,249.6Z"/><path class="cls-6" d="M363.67,245.61c.14,0,.2.48.14,1s-.23,1-.38,1-.21-.47-.14-1S363.52,245.59,363.67,245.61Z"/><path class="cls-6" d="M366.83,244.72c0,.15-.45.25-1,.23s-1-.16-1-.3.46-.24,1-.22S366.84,244.58,366.83,244.72Z"/><path class="cls-6" d="M370.83,244.87c0,.14-.46.24-1,.22s-1-.15-1-.29.46-.25,1-.23S370.83,244.72,370.83,244.87Z"/><path class="cls-6" d="M374.83,245c0,.15-.46.25-1,.23s-1-.16-1-.3.46-.24,1-.22S374.83,244.87,374.83,245Z"/><path class="cls-6" d="M378.82,245.16c0,.14-.45.24-1,.22s-1-.15-1-.3.45-.24,1-.22S378.83,245,378.82,245.16Z"/><path class="cls-6" d="M382.82,245.3c0,.14-.46.24-1,.22s-1-.15-1-.29.46-.25,1-.23S382.83,245.16,382.82,245.3Z"/><path class="cls-6" d="M386.82,245.44c0,.15-.46.25-1,.23s-1-.15-1-.3.46-.24,1-.22S386.82,245.3,386.82,245.44Z"/><path class="cls-6" d="M390.82,245.59c0,.14-.46.24-1,.22s-1-.15-1-.29.45-.25,1-.23S390.82,245.45,390.82,245.59Z"/><path class="cls-6" d="M394.81,245.73c0,.15-.45.25-1,.23s-1-.16-1-.3.45-.24,1-.22S394.82,245.59,394.81,245.73Z"/><path class="cls-6" d="M398.81,245.88c0,.14-.46.24-1,.22s-1-.15-1-.29.46-.25,1-.23S398.82,245.73,398.81,245.88Z"/><path class="cls-6" d="M402.81,246c0,.15-.46.25-1,.23s-1-.16-1-.3.46-.24,1-.22S402.81,245.88,402.81,246Z"/><path class="cls-6" d="M406.81,246.17c0,.14-.46.24-1,.22s-1-.15-1-.3.45-.24,1-.22S406.81,246,406.81,246.17Z"/><path class="cls-6" d="M410.8,246.31c0,.14-.45.24-1,.22s-1-.15-1-.29.46-.25,1-.23S410.81,246.17,410.8,246.31Z"/><path class="cls-6" d="M414.8,246.45c0,.15-.46.25-1,.23s-1-.15-1-.3.46-.24,1-.22S414.81,246.31,414.8,246.45Z"/><path class="cls-12" d="M415.52,425.2a200.33,200.33,0,0,0,5-34.18c.15-3.52-5.59-4.41-6.25-.85a200.08,200.08,0,0,0-2.9,34.47c0,2.36,3.66,3,4.2.56Z"/><path class="cls-6" d="M473.62,463.11l-.57-.51c-2.54-2.24-6.69-2.68-9.15,0a6.62,6.62,0,0,0,0,9.15l.51.58c2.26,2.56,6.93,2.48,9.21,0s2.73-6.81,0-9.22Z"/><circle class="cls-1" cx="172.57" cy="509.14" r="170.39" transform="translate(-309.47 271.15) rotate(-45)"/><path class="cls-7" d="M198.44,451.69l113,42.37-10.79-45.64,29.4-7.47s31.62,89.23,9.66,91.62c-38.44,4.18-96.61-11-96.61-11Z"/><path class="cls-11" d="M237.69,554l-.26,89.39c-29.44,36.19-131.91-10.6-131.91-10.6l-1.2-36.56-2.38-87.09c2.36-34.68,34.57-51.7,34.57-51.7,13.32-6.64,33.63-10.41,51.92-9.5,19.1.94,23.82,10.09,31.69,27.52C226.48,489.57,237.69,502.78,237.69,554Z"/><path class="cls-7" d="M147.57,537.77s-14.32,84.41,5.88,82.33c66.44-6.83,106-7.75,106-7.75l11,22.87c.25,3.89-125.83,40-146.09,28-14.3-8.43-37.09-31.12-26.75-98.94l2.45-22.74Z"/><path class="cls-11" d="M111,481.78s-15.49,14.89-19,71.2l60-6.64S162,450.43,111,481.78Z"/><path class="cls-7" d="M141.07,363.75l1.35,17.88s-15.2,2.05-10.86,15.91,14.73,7.8,14.73,7.8,2.6,35.53,39,24.26c29-9,27.19-46.47,23.52-78.45a21.42,21.42,0,0,0-25.38-18.52l-21.88,4.26A25.4,25.4,0,0,0,141.07,363.75Z"/><path class="cls-7" d="M142.42,396.46l9.81,52.3a21,21,0,0,0,25.48,16.53h0a21,21,0,0,0,15.79-24.07l-5.32-30Z"/><path class="cls-6" d="M182.68,397.05s.08.1.22.29a1.45,1.45,0,0,0,.8.55c.84.24,2.15-.6,2.48-2.16a17.08,17.08,0,0,0,.14-5.61c-.14-2.15-.29-4.5-.45-7-.31-4.95-.57-9.43-.72-12.68-.06-1.54-.12-2.83-.16-3.84a7.66,7.66,0,0,1,0-1.41,6.06,6.06,0,0,1,.19,1.4c.09,1,.2,2.29.33,3.83.25,3.24.56,7.72.87,12.67.14,2.46.28,4.82.41,7a16.66,16.66,0,0,1-.26,5.74,3.51,3.51,0,0,1-1.23,1.89,1.91,1.91,0,0,1-1.66.36,1.44,1.44,0,0,1-.84-.68A.92.92,0,0,1,182.68,397.05Z"/><path class="cls-6" d="M194.49,426a6.37,6.37,0,0,1-1.13.93A26.05,26.05,0,0,1,190,429a28.86,28.86,0,0,1-25.48.53,25,25,0,0,1-3.48-1.94,5.86,5.86,0,0,1-1.16-.88,10.66,10.66,0,0,1,1.27.71,33.7,33.7,0,0,0,3.52,1.78,29.93,29.93,0,0,0,25.17-.53,33.08,33.08,0,0,0,3.45-1.93A9.15,9.15,0,0,1,194.49,426Z"/><path class="cls-6" d="M187.38,404.39a2,2,0,0,1-.47.63,7.44,7.44,0,0,1-1.68,1.34,8.37,8.37,0,0,1-12.06-3.88,7.63,7.63,0,0,1-.59-2.06,2.19,2.19,0,0,1,0-.79,19.22,19.22,0,0,0,.93,2.7A8.31,8.31,0,0,0,185.05,406,16.79,16.79,0,0,0,187.38,404.39Z"/><path class="cls-6" d="M141.28,399.27s-.22.08-.61.07a4.69,4.69,0,0,1-1.62-.36,3.05,3.05,0,0,1-1.74-1.81,2.47,2.47,0,0,1-.05-1.55,1.89,1.89,0,0,1,1.16-1.23,1.81,1.81,0,0,1,2.22.62l-.44.23a35.13,35.13,0,0,1-2-5.06,33.81,33.81,0,0,1,2.43,4.86l-.44.23a1.33,1.33,0,0,0-1.61-.4,1.64,1.64,0,0,0-.84,2.15,2.72,2.72,0,0,0,1.43,1.63A12,12,0,0,0,141.28,399.27Z"/><path class="cls-6" d="M169.3,364a17.58,17.58,0,0,0-3.83.29A17.09,17.09,0,0,0,162,366a5.39,5.39,0,0,1,3.35-2.13A5.45,5.45,0,0,1,169.3,364Z"/><path class="cls-6" d="M200.77,359.05a23.17,23.17,0,0,0-4.22-.29,21.26,21.26,0,0,0-4.1,1,8,8,0,0,1,8.32-.73Z"/><path class="cls-6" d="M142.42,381.63c10.16-9.91,13.15-26.41,15.9-40.32a35.59,35.59,0,0,0,33.2,4.32A53.29,53.29,0,0,0,203.35,356c1.25.81,2.74,1.59,4.17,1.16,1.71-.52,2.47-2.47,2.87-4.2a29.85,29.85,0,0,0-.59-16.86,20.25,20.25,0,0,0-11.31-12.12c-5.68-2.2-12.07-1.25-18,.28a100,100,0,0,0-25.37,10.49c-7.77,4.55-15.24,10.57-18.54,19s-3.28,24.67,4.67,28.91"/><path class="cls-11" d="M202.39,451.31c-9.83-3.91,65.82,24.18,65.82,24.18l-7.67,51.75-28.78-9.44Z"/><path class="cls-7" d="M252.47,612.36s32.51-10.2,31.4-6.85-6.65,3.48-12.19,8.89c0,0,36.35.39,34.6,3.39s-25.4,3.75-25.55,4.26,25.88,1.14,25.3,3.91-24.77,2.09-24.77,2.09,22.42,2.39,22,5.37-21.13.84-21.13.84,17.3,2,16.85,4.68c-.28,1.65-50.64,2-50.75,3.23-.05.64,4.28-29.81,4.28-29.81"/><path class="cls-7" d="M302.81,451.31s-19.75-27.6-16.23-27.59,5.36,5.21,12.19,8.77c0,0-10.91-34.52-7.53-33.79s11.43,22.88,12,22.85-6.95-24.84-4.15-25.15,9.67,22.79,9.67,22.79S304,397.24,307,396.75s7.34,19.72,7.34,19.72-3.5-17-.8-17.39c1.65-.25,16.55,41.87,16.55,41.87-.39,0-27.27,10.36-27.27,10.36"/><path class="cls-13" d="M120.71,527.24a3.49,3.49,0,0,1,.26,1,11.21,11.21,0,0,1,.19,2.84,4.89,4.89,0,0,1-2,3.71,3.19,3.19,0,0,1-2.52.56,4.47,4.47,0,0,1-2.29-1.52,17.86,17.86,0,0,0-1.81-1.86,4.4,4.4,0,0,0-2.13-.87,4.32,4.32,0,0,0-3.62,1.23,4.74,4.74,0,0,0-1.25,2.38c-.13.63-.1,1-.14,1a2.06,2.06,0,0,1-.06-1,4.74,4.74,0,0,1,1.18-2.6,4.77,4.77,0,0,1,6.33-.51,17,17,0,0,1,1.88,1.91,4.09,4.09,0,0,0,2,1.38,2.73,2.73,0,0,0,2.14-.47,4.2,4.2,0,0,0,1.38-1.57,5.27,5.27,0,0,0,.51-1.78,12.91,12.91,0,0,0,0-2.77A5.69,5.69,0,0,1,120.71,527.24Z"/><path class="cls-13" d="M138.48,511.91s.23-.29.72-.74a11.49,11.49,0,0,1,2.32-1.63,4.84,4.84,0,0,1,4.2-.24,3.21,3.21,0,0,1,1.8,1.86,4.53,4.53,0,0,1-.1,2.75,15.51,15.51,0,0,0-.65,2.51,4.38,4.38,0,0,0,3.29,4.72,4.81,4.81,0,0,0,2.68-.16c.61-.23.91-.45.94-.41a2,2,0,0,1-.86.59,4.61,4.61,0,0,1-6.13-2.27,4.72,4.72,0,0,1-.43-2.52,16.21,16.21,0,0,1,.65-2.6,4.15,4.15,0,0,0,.13-2.45,2.73,2.73,0,0,0-1.51-1.58,4.19,4.19,0,0,0-2.06-.36,5.55,5.55,0,0,0-1.79.49,13.65,13.65,0,0,0-2.35,1.46A4.59,4.59,0,0,1,138.48,511.91Z"/><path class="cls-13" d="M137.28,473.72s.23-.3.72-.74a11.87,11.87,0,0,1,2.32-1.64,4.88,4.88,0,0,1,4.2-.23,3.18,3.18,0,0,1,1.8,1.86,4.53,4.53,0,0,1-.1,2.75,15.25,15.25,0,0,0-.65,2.51,4.38,4.38,0,0,0,3.29,4.72,4.8,4.8,0,0,0,2.68-.17c.61-.22.91-.44.94-.4a2,2,0,0,1-.86.59,4.69,4.69,0,0,1-2.83.34,4.62,4.62,0,0,1-3.3-2.61,4.75,4.75,0,0,1-.43-2.53,16.36,16.36,0,0,1,.65-2.59,4.15,4.15,0,0,0,.13-2.45,2.73,2.73,0,0,0-1.51-1.58,4.08,4.08,0,0,0-2.06-.36,5.09,5.09,0,0,0-1.79.49,13.05,13.05,0,0,0-2.35,1.46A4.59,4.59,0,0,1,137.28,473.72Z"/><path class="cls-13" d="M175.15,523.46a4.38,4.38,0,0,1-.8-.66,11.48,11.48,0,0,1-1.83-2.17,4.84,4.84,0,0,1-.6-4.16,3.18,3.18,0,0,1,1.7-2,4.5,4.5,0,0,1,2.74-.13,16.82,16.82,0,0,0,2.56.42,4.21,4.21,0,0,0,2.23-.56,4.25,4.25,0,0,0,2.18-3.13,4.76,4.76,0,0,0-.39-2.66c-.28-.59-.52-.86-.49-.89s.32.21.67.8a4.65,4.65,0,0,1,.58,2.79,4.6,4.6,0,0,1-2.31,3.51,4.69,4.69,0,0,1-2.48.65,15.61,15.61,0,0,1-2.64-.42,4.13,4.13,0,0,0-2.45.09,2.7,2.7,0,0,0-1.45,1.64,4.28,4.28,0,0,0-.18,2.08,5.47,5.47,0,0,0,.65,1.74,13.05,13.05,0,0,0,1.66,2.22C174.94,523.15,175.18,523.43,175.15,523.46Z"/><path class="cls-13" d="M201,563.4a3.37,3.37,0,0,1-.78.68,10.81,10.81,0,0,1-2.43,1.46,4.86,4.86,0,0,1-4.21-.07,3.22,3.22,0,0,1-1.65-2,4.49,4.49,0,0,1,.31-2.73,17,17,0,0,0,.83-2.46,4.4,4.4,0,0,0-2.94-4.95,4.79,4.79,0,0,0-2.69,0c-.62.17-.94.37-1,.33a2.15,2.15,0,0,1,.9-.53,4.67,4.67,0,0,1,2.85-.12,4.76,4.76,0,0,1,3.34,5.39,16.2,16.2,0,0,1-.84,2.55,4.08,4.08,0,0,0-.31,2.42,2.76,2.76,0,0,0,1.39,1.7,4.29,4.29,0,0,0,2,.51,5.57,5.57,0,0,0,1.83-.36,13.37,13.37,0,0,0,2.45-1.28A4.24,4.24,0,0,1,201,563.4Z"/><path class="cls-13" d="M231.38,500.4a3.86,3.86,0,0,1-.78.69,11.31,11.31,0,0,1-2.44,1.46,4.84,4.84,0,0,1-4.2-.08,3.18,3.18,0,0,1-1.66-2,4.5,4.5,0,0,1,.31-2.73,17,17,0,0,0,.83-2.46,4.36,4.36,0,0,0-2.94-4.94,4.77,4.77,0,0,0-2.68,0c-.63.18-.94.38-1,.34a2.25,2.25,0,0,1,.9-.53,4.73,4.73,0,0,1,2.85-.13,4.58,4.58,0,0,1,3.09,2.85,4.64,4.64,0,0,1,.25,2.55,16.43,16.43,0,0,1-.84,2.54,4.11,4.11,0,0,0-.31,2.43,2.75,2.75,0,0,0,1.4,1.69,4.15,4.15,0,0,0,2,.51,5.26,5.26,0,0,0,1.82-.36,13,13,0,0,0,2.45-1.28A4.76,4.76,0,0,1,231.38,500.4Z"/><path class="cls-13" d="M252.12,490.82a3.47,3.47,0,0,1,.9.5,10.8,10.8,0,0,1,2.2,1.8,4.81,4.81,0,0,1,1.35,4,3.18,3.18,0,0,1-1.31,2.23,4.5,4.5,0,0,1-2.67.64,15.85,15.85,0,0,0-2.6,0,4.36,4.36,0,0,0-2.09,1,4.3,4.3,0,0,0-1.57,3.49,4.74,4.74,0,0,0,.87,2.53c.38.53.68.76.65.8a2.16,2.16,0,0,1-.81-.67,4.75,4.75,0,0,1-1.08-2.64,4.62,4.62,0,0,1,1.63-3.87,4.82,4.82,0,0,1,2.32-1.1,16,16,0,0,1,2.68-.06,4.1,4.1,0,0,0,2.39-.54A2.76,2.76,0,0,0,256.1,497a4.37,4.37,0,0,0-.2-2.08,5.44,5.44,0,0,0-1-1.59,12.68,12.68,0,0,0-2-1.87A4.19,4.19,0,0,1,252.12,490.82Z"/><path class="cls-13" d="M168.2,596a3.52,3.52,0,0,1-.78.69,11.19,11.19,0,0,1-2.43,1.46,4.86,4.86,0,0,1-4.21-.08,3.19,3.19,0,0,1-1.65-2,4.5,4.5,0,0,1,.31-2.73,17,17,0,0,0,.83-2.46,4.4,4.4,0,0,0-2.94-4.94,4.81,4.81,0,0,0-2.69,0c-.62.18-.94.38-1,.34a2.15,2.15,0,0,1,.9-.53,4.73,4.73,0,0,1,2.85-.13,4.77,4.77,0,0,1,3.34,5.4,16.43,16.43,0,0,1-.84,2.54,4.11,4.11,0,0,0-.31,2.43,2.77,2.77,0,0,0,1.39,1.69,4.18,4.18,0,0,0,2,.51,5.32,5.32,0,0,0,1.83-.36,13.37,13.37,0,0,0,2.45-1.28A4.92,4.92,0,0,1,168.2,596Z"/><path class="cls-13" d="M213.2,535.35a3.73,3.73,0,0,1-.71-.75,10.36,10.36,0,0,1-1.56-2.37,4.81,4.81,0,0,1-.11-4.2,3.17,3.17,0,0,1,1.92-1.74,4.51,4.51,0,0,1,2.74.19,17.13,17.13,0,0,0,2.49.73,4.41,4.41,0,0,0,4.82-3.15,4.79,4.79,0,0,0-.08-2.69c-.2-.61-.41-.92-.38-.94a2,2,0,0,1,.57.87,4.69,4.69,0,0,1,.25,2.84,4.61,4.61,0,0,1-2.71,3.22,4.8,4.8,0,0,1-2.54.35,16.49,16.49,0,0,1-2.58-.73,4,4,0,0,0-2.44-.2,2.71,2.71,0,0,0-1.63,1.46,4.16,4.16,0,0,0-.42,2,5.46,5.46,0,0,0,.43,1.81,13.41,13.41,0,0,0,1.39,2.39A4,4,0,0,1,213.2,535.35Z"/><path class="cls-13" d="M221.28,567.92a3.58,3.58,0,0,1-.72-.75A11.07,11.07,0,0,1,219,564.8a5.75,5.75,0,0,1-.53-1.92,4.57,4.57,0,0,1,.43-2.28,3.18,3.18,0,0,1,1.91-1.74,4.54,4.54,0,0,1,2.75.19,16.43,16.43,0,0,0,2.49.73,4.38,4.38,0,0,0,2.28-.29,4.33,4.33,0,0,0,2.54-2.86,4.75,4.75,0,0,0-.08-2.68c-.21-.62-.42-.93-.38-1a2.1,2.1,0,0,1,.57.87,4.65,4.65,0,0,1,.24,2.85,4.59,4.59,0,0,1-2.71,3.21,4.76,4.76,0,0,1-2.53.35,16.49,16.49,0,0,1-2.58-.73,4.08,4.08,0,0,0-2.44-.2,2.68,2.68,0,0,0-1.63,1.46,4.18,4.18,0,0,0-.43,2,5.41,5.41,0,0,0,.44,1.81,13.41,13.41,0,0,0,1.39,2.39A4.55,4.55,0,0,1,221.28,567.92Z"/><path class="cls-13" d="M156.15,554a3.82,3.82,0,0,1,0-1,10.51,10.51,0,0,1,.43-2.8,4.85,4.85,0,0,1,2.75-3.18,3.2,3.2,0,0,1,2.59,0,4.57,4.57,0,0,1,1.9,2,16,16,0,0,0,1.36,2.21,4.36,4.36,0,0,0,5.68.91,4.83,4.83,0,0,0,1.75-2c.26-.59.31-1,.36-1a2.24,2.24,0,0,1-.18,1,4.6,4.6,0,0,1-5.89,2.83,4.65,4.65,0,0,1-2.11-1.44,15.78,15.78,0,0,1-1.42-2.28,4.13,4.13,0,0,0-1.67-1.78,2.7,2.7,0,0,0-2.19,0,4.19,4.19,0,0,0-1.69,1.23,5.45,5.45,0,0,0-.89,1.63,13.81,13.81,0,0,0-.58,2.7A4.24,4.24,0,0,1,156.15,554Z"/><path class="cls-13" d="M215,594.24a3.52,3.52,0,0,1,0-1,11.11,11.11,0,0,1,.44-2.8,4.85,4.85,0,0,1,2.75-3.18,3.2,3.2,0,0,1,2.59,0,4.54,4.54,0,0,1,1.9,2,16.38,16.38,0,0,0,1.35,2.21,4.38,4.38,0,0,0,5.69.91,4.74,4.74,0,0,0,1.74-2c.27-.59.32-1,.36-.95a2,2,0,0,1-.17,1,4.66,4.66,0,0,1-1.73,2.27,4.59,4.59,0,0,1-4.16.55,4.68,4.68,0,0,1-2.12-1.44,16.65,16.65,0,0,1-1.41-2.28,4.13,4.13,0,0,0-1.67-1.78,2.7,2.7,0,0,0-2.19,0,4.19,4.19,0,0,0-1.69,1.23,5.24,5.24,0,0,0-.89,1.63,12.47,12.47,0,0,0-.58,2.7A4.24,4.24,0,0,1,215,594.24Z"/><path class="cls-13" d="M213.26,472.42a3.76,3.76,0,0,1,0-1,11,11,0,0,1,.43-2.81,4.87,4.87,0,0,1,2.75-3.18,3.2,3.2,0,0,1,2.59,0,4.54,4.54,0,0,1,1.9,2,16.15,16.15,0,0,0,1.36,2.22,4.32,4.32,0,0,0,1.88,1.31,4.25,4.25,0,0,0,3.8-.41,4.78,4.78,0,0,0,1.75-2c.26-.59.31-1,.36-.95a2.32,2.32,0,0,1-.17,1,4.79,4.79,0,0,1-1.73,2.27,4.76,4.76,0,0,1-6.28-.89,16.25,16.25,0,0,1-1.42-2.27,4.1,4.1,0,0,0-1.67-1.79,2.74,2.74,0,0,0-2.19,0,4.19,4.19,0,0,0-1.69,1.23,5.57,5.57,0,0,0-.89,1.63,13.81,13.81,0,0,0-.58,2.7A4.24,4.24,0,0,1,213.26,472.42Z"/><path class="cls-13" d="M194.05,610.41a3.56,3.56,0,0,1-1-.39,10.57,10.57,0,0,1-2.41-1.5,4.86,4.86,0,0,1-1.84-3.79,3.21,3.21,0,0,1,1-2.37,4.6,4.6,0,0,1,2.58-1A16.38,16.38,0,0,0,195,601a4.37,4.37,0,0,0,2-1.21,4.27,4.27,0,0,0,1.12-3.66,4.72,4.72,0,0,0-1.18-2.4c-.44-.48-.76-.67-.74-.71a2.2,2.2,0,0,1,.88.56,4.72,4.72,0,0,1,1.41,2.49,4.62,4.62,0,0,1-1.14,4,4.77,4.77,0,0,1-2.16,1.38,15.85,15.85,0,0,1-2.65.4,4.15,4.15,0,0,0-2.3.83,2.74,2.74,0,0,0-.88,2,4.27,4.27,0,0,0,.46,2,5.32,5.32,0,0,0,1.15,1.46,13.29,13.29,0,0,0,2.25,1.61A4.13,4.13,0,0,1,194.05,610.41Z"/><path class="cls-13" d="M124.29,490.82a3.74,3.74,0,0,1,.64.82,11.21,11.21,0,0,1,1.32,2.51,4.84,4.84,0,0,1-.31,4.19,3.22,3.22,0,0,1-2.07,1.55,4.66,4.66,0,0,1-2.72-.46,16.54,16.54,0,0,0-2.4-1,4.4,4.4,0,0,0-5.11,2.66,4.83,4.83,0,0,0-.18,2.68c.14.64.32,1,.28,1a2.11,2.11,0,0,1-.47-.93,4.6,4.6,0,0,1,3-5.78,4.71,4.71,0,0,1,2.56-.1,16.09,16.09,0,0,1,2.49,1,4.21,4.21,0,0,0,2.41.44,2.76,2.76,0,0,0,1.76-1.3,4.26,4.26,0,0,0,.63-2,5.69,5.69,0,0,0-.26-1.84,13.07,13.07,0,0,0-1.15-2.52A4.36,4.36,0,0,1,124.29,490.82Z"/><path class="cls-13" d="M191.62,478.77a3.8,3.8,0,0,1,.64.81,10.85,10.85,0,0,1,1.32,2.51,4.86,4.86,0,0,1-.3,4.2,3.2,3.2,0,0,1-2.08,1.54,4.53,4.53,0,0,1-2.71-.45,15.57,15.57,0,0,0-2.41-1,4.39,4.39,0,0,0-5.1,2.66,4.76,4.76,0,0,0-.19,2.68c.15.63.33,1,.29,1a2.13,2.13,0,0,1-.48-.93,4.65,4.65,0,0,1,0-2.85,4.58,4.58,0,0,1,3-2.93,4.8,4.8,0,0,1,2.56-.11,15.75,15.75,0,0,1,2.49,1,4.12,4.12,0,0,0,2.41.43,2.75,2.75,0,0,0,1.77-1.29,4.17,4.17,0,0,0,.62-2,5.19,5.19,0,0,0-.26-1.84,13.14,13.14,0,0,0-1.14-2.52A4.17,4.17,0,0,1,191.62,478.77Z"/><path class="cls-6" d="M150.11,549.62a1.37,1.37,0,0,1,0-.27c0-.2,0-.46.06-.79.07-.73.16-1.74.28-3,.27-2.67.66-6.46,1.13-11.13,1-9.42,2.4-22.38,3.93-36.68a41.39,41.39,0,0,0,0-10.43,18.57,18.57,0,0,0-3.71-8.81,22.55,22.55,0,0,0-6.63-5.66,26.52,26.52,0,0,0-7.14-2.72,37.83,37.83,0,0,0-11.07-.72c-1.31.09-2.33.21-3,.29l-.79.09-.27,0a1.23,1.23,0,0,1,.27-.07l.77-.14c.69-.11,1.71-.27,3-.39a36.82,36.82,0,0,1,11.17.56,26.17,26.17,0,0,1,7.27,2.71,22.69,22.69,0,0,1,6.79,5.74,19,19,0,0,1,3.85,9,41.94,41.94,0,0,1,0,10.56c-1.59,14.3-3,27.25-4.08,36.67-.54,4.66-1,8.44-1.3,11.11-.16,1.28-.29,2.29-.38,3,0,.32-.08.57-.11.78S150.12,549.63,150.11,549.62Z"/><path class="cls-6" d="M152.78,546.36c0,.14-13.69,1.71-30.61,3.5s-30.66,3.12-30.67,3,13.69-1.71,30.61-3.5S152.77,546.21,152.78,546.36Z"/><path class="cls-4" d="M299.1,570.58c.51-3.43.41-6.69,2.33-9.71,3.83-6,9.26-4.51,14.52-1.86s10.41,4.31,16.24,1.79c9.1-3.94,13.37-17.66,4.68-24.12-2.81-2.09-5.58,1.36-5.2,4,.52,3.69,2.36,7.75-.81,10.93-4.23,4.24-9.19.67-13.41-1.23a17.54,17.54,0,0,0-14.1-.61c-8.1,3.28-14,14.26-7.54,21.67a2,2,0,0,0,3.29-.87Z"/><path class="cls-2" d="M361,440.34c-6.29,6-8.68,15.43-2.68,22.68,5.64,6.83,16.56,8.27,23.61,2.83,17-13.13-.72-37.37-19.09-32.35-3.4.93-2.55,5.77.81,6,5.37.31,11.12.52,15.41,4.28,4.61,4,4.71,10.88.93,15.53-10,12.3-27.4-5.82-16.89-16.82a1.49,1.49,0,0,0-2.1-2.11Z"/><path class="cls-3" d="M96.49,428.34c-6.29,6-8.68,15.43-2.68,22.68,5.64,6.83,16.56,8.28,23.61,2.84,17-13.14-.72-37.38-19.08-32.36-3.4.93-2.55,5.78.81,6,5.37.3,11.11.51,15.4,4.27,4.61,4,4.71,10.88.93,15.53-10,12.31-27.4-5.82-16.88-16.82a1.49,1.49,0,0,0-2.11-2.11Z"/><path class="cls-2" d="M5.29,579.93c4.33,16.07,9.1,32,14.05,47.84,1.19,3.82,4.8,5,8.09,2.78,12.91-8.76,25.83-17.39,38.06-27.1,2.35-1.87,1.84-5.63-.49-7.23-14.32-9.83-33.67-24.34-51.84-24.44-4.62,0-7.85,6.48-3.16,9.18,7.33,4.23,16.12,5.74,24,9a130.64,130.64,0,0,1,26,13.86q.27-3.95.53-7.91c-13.66,8.42-26.54,17.86-39.54,27.26l7.68,1.54C23.05,609,17.36,593.44,11.21,578c-1.3-3.27-6.84-1.48-5.92,1.95Z"/><path class="cls-5" d="M380.18,512.41a199.92,199.92,0,0,0,34.38,2.26c4.16-.16,4-5.94,0-6.36a194.89,194.89,0,0,0-33.82-.1c-2.22.16-3.11,3.84-.56,4.2Z"/><path class="cls-5" d="M1.54,512.41a200.1,200.1,0,0,0,34.39,2.26c4.16-.16,4-5.94,0-6.36a194.89,194.89,0,0,0-33.82-.1c-2.22.16-3.11,3.84-.57,4.2Z"/><path class="cls-6" d="M76.74,494l-.57-.51c-2.54-2.24-6.69-2.68-9.15,0a6.62,6.62,0,0,0,0,9.15l.51.58c2.26,2.56,6.93,2.48,9.21,0s2.73-6.81,0-9.22Z"/><path class="cls-6" d="M237.61,547a11.56,11.56,0,0,1-.09-1.75c0-1.12-.08-2.74-.16-4.75-.15-4-.53-9.54-1-15.65s-.76-11.66-.82-15.68c0-2,0-3.64,0-4.77a12.13,12.13,0,0,1,.1-1.74,10.58,10.58,0,0,1,.1,1.75c0,1.12.07,2.74.15,4.75.16,4,.53,9.54,1,15.65s.76,11.66.82,15.68c0,2,0,3.64,0,4.76A11.11,11.11,0,0,1,237.61,547Z"/><polygon class="cls-6" points="302.06 454.26 331.77 445.92 333.53 451.31 303.56 460.58 302.06 454.26"/><path class="cls-8" d="M321,453a3.69,3.69,0,1,1-3.68-3.68A3.69,3.69,0,0,1,321,453Z"/><path class="cls-6" d="M200.77,371.59c-.11.07-.87-.74-1.81-1.78s-1.55-2-1.41-2.12a9,9,0,0,1,1.8,1.78C200.29,370.5,200.91,371.5,200.77,371.59Z"/><path class="cls-6" d="M173.72,375.39a9,9,0,0,1-1.8-1.78c-.94-1-1.56-2-1.42-2.12s.87.74,1.81,1.78S173.86,375.31,173.72,375.39Z"/></g></g></svg>