<?xml version="1.0" encoding="utf-8"?>
<!-- Generator: Adobe Illustrator 23.1.1, SVG Export Plug-In . SVG Version: 6.00 Build 0)  -->
<svg version="1.1" id="Layer_1" xmlns="http://www.w3.org/2000/svg" xmlns:xlink="http://www.w3.org/1999/xlink" x="0px" y="0px"
	 viewBox="0 0 185.4 127.5" style="enable-background:new 0 0 185.4 127.5;" xml:space="preserve">
<style type="text/css">
	.st0{fill:#FFFFFF;}
	.st1{clip-path:url(#SVGID_2_);fill:url(#SVGID_3_);}
	.st2{clip-path:url(#SVGID_5_);fill:url(#SVGID_6_);}
	.st3{clip-path:url(#SVGID_8_);fill:url(#SVGID_9_);}
	.st4{clip-path:url(#SVGID_11_);fill:url(#SVGID_12_);}
	.st5{clip-path:url(#SVGID_14_);fill:url(#SVGID_15_);}
	.st6{clip-path:url(#SVGID_17_);fill:url(#SVGID_18_);}
	.st7{fill:url(#SVGID_19_);}
	.st8{fill:url(#SVGID_20_);}
</style>
<title>Logo SoEasy</title>
<g>
	<path class="st0" d="M72,44.8c0.4,1.7,1.3,3.1,2.6,4.1c1.3,1,2.9,1.6,4.5,1.6c2.1,0,3.8-0.7,5.2-2.1c1.4-1.4,2.1-3.1,2.1-5.2
		c0-1.8-0.5-3.3-1.5-4.6c-1-1.3-2.3-2.1-3.9-2.5l-3.9-1c-1.9-0.5-3.5-1.5-4.7-3.1c-1.2-1.6-1.8-3.3-1.8-5.3c0-2.4,0.8-4.5,2.5-6.2
		c1.7-1.7,3.7-2.5,6.2-2.5c1.5,0,3,0.4,4.4,1.2s2.4,1.8,3.2,3.1l-2.4,1.4c-1.1-1.9-2.8-2.9-5.1-2.9c-1.6,0-3,0.6-4.2,1.8
		c-1.2,1.2-1.7,2.6-1.7,4.2c0,1.4,0.4,2.6,1.3,3.7c0.8,1.1,1.9,1.8,3.1,2.1l3.9,1c2.2,0.6,4,1.8,5.4,3.6c1.4,1.8,2.1,3.9,2.1,6.1
		c0,2.8-1,5.2-3,7.1s-4.3,2.9-7.1,2.9c-2.3,0-4.4-0.7-6.2-2.2s-3-3.3-3.6-5.5L72,44.8z"/>
	<path class="st0" d="M108.5,17.9c3.3,0,6.2,0.8,9,2.4c2.7,1.6,4.9,3.7,6.5,6.4c1.6,2.7,2.4,5.7,2.4,8.9c0,3.3-0.8,6.2-2.4,9
		c-1.6,2.7-3.7,4.9-6.5,6.5c-2.7,1.6-5.7,2.4-9,2.4s-6.2-0.8-8.9-2.4c-2.7-1.6-4.8-3.7-6.4-6.5c-1.6-2.7-2.4-5.7-2.4-9
		c0-2.4,0.5-4.7,1.4-6.8s2.2-4.1,3.8-5.8c1.7-1.7,3.6-2.9,5.7-3.8C103.8,18.3,106.1,17.9,108.5,17.9z M108.5,20.6
		c-2.7,0-5.2,0.7-7.5,2s-4.1,3.2-5.5,5.5c-1.3,2.3-2,4.8-2,7.5c0,2.7,0.7,5.2,2,7.5c1.3,2.3,3.2,4.1,5.5,5.5s4.8,2,7.5,2
		c2.7,0,5.2-0.7,7.5-2s4.1-3.2,5.5-5.5s2-4.8,2-7.5c0-2.6-0.7-5.1-2-7.5c-1.3-2.3-3.2-4.2-5.5-5.5S111.2,20.6,108.5,20.6z"/>
</g>
<g>
	<g>
		<defs>
			<path id="SVGID_1_" d="M72,44.8c0.4,1.7,1.3,3.1,2.6,4.1c1.3,1,2.9,1.6,4.5,1.6c2.1,0,3.8-0.7,5.2-2.1c1.4-1.4,2.1-3.1,2.1-5.2
				c0-1.8-0.5-3.3-1.5-4.6c-1-1.3-2.3-2.1-3.9-2.5l-3.9-1c-1.9-0.5-3.5-1.5-4.7-3.1c-1.2-1.6-1.8-3.3-1.8-5.3c0-2.4,0.8-4.5,2.5-6.2
				c1.7-1.7,3.7-2.5,6.2-2.5c1.5,0,3,0.4,4.4,1.2s2.4,1.8,3.2,3.1l-2.4,1.4c-1.1-1.9-2.8-2.9-5.1-2.9c-1.6,0-3,0.6-4.2,1.8
				c-1.2,1.2-1.7,2.6-1.7,4.2c0,1.4,0.4,2.6,1.3,3.7c0.8,1.1,1.9,1.8,3.1,2.1l3.9,1c2.2,0.6,4,1.8,5.4,3.6c1.4,1.8,2.1,3.9,2.1,6.1
				c0,2.8-1,5.2-3,7.1s-4.3,2.9-7.1,2.9c-2.3,0-4.4-0.7-6.2-2.2s-3-3.3-3.6-5.5L72,44.8z"/>
		</defs>
		<clipPath id="SVGID_2_">
			<use xlink:href="#SVGID_1_"  style="overflow:visible;"/>
		</clipPath>
		<linearGradient id="SVGID_3_" gradientUnits="userSpaceOnUse" x1="66.9921" y1="127.6834" x2="186.2605" y2="8.4149">
			<stop  offset="2.885251e-02" style="stop-color:#912AD4"/>
			<stop  offset="1" style="stop-color:#1E0AD7"/>
		</linearGradient>
		<rect x="67" y="8.4" class="st1" width="119.2" height="119.4"/>
	</g>
	<g>
		<defs>
			<path id="SVGID_4_" d="M108.5,17.9c3.3,0,6.2,0.8,9,2.4c2.7,1.6,4.9,3.7,6.5,6.4c1.6,2.7,2.4,5.7,2.4,8.9c0,3.3-0.8,6.2-2.4,9
				c-1.6,2.7-3.7,4.9-6.5,6.5c-2.7,1.6-5.7,2.4-9,2.4s-6.2-0.8-8.9-2.4c-2.7-1.6-4.8-3.7-6.4-6.5c-1.6-2.7-2.4-5.7-2.4-9
				c0-2.4,0.5-4.7,1.4-6.8s2.2-4.1,3.8-5.8c1.7-1.7,3.6-2.9,5.7-3.8C103.8,18.3,106.1,17.9,108.5,17.9z M108.5,20.6
				c-2.7,0-5.2,0.7-7.5,2s-4.1,3.2-5.5,5.5c-1.3,2.3-2,4.8-2,7.5c0,2.7,0.7,5.2,2,7.5c1.3,2.3,3.2,4.1,5.5,5.5s4.8,2,7.5,2
				c2.7,0,5.2-0.7,7.5-2s4.1-3.2,5.5-5.5s2-4.8,2-7.5c0-2.6-0.7-5.1-2-7.5c-1.3-2.3-3.2-4.2-5.5-5.5S111.2,20.6,108.5,20.6z"/>
		</defs>
		<clipPath id="SVGID_5_">
			<use xlink:href="#SVGID_4_"  style="overflow:visible;"/>
		</clipPath>
		<linearGradient id="SVGID_6_" gradientUnits="userSpaceOnUse" x1="66.9921" y1="127.6834" x2="186.2605" y2="8.4149">
			<stop  offset="2.885251e-02" style="stop-color:#912AD4"/>
			<stop  offset="1" style="stop-color:#1E0AD7"/>
		</linearGradient>
		<rect x="67" y="8.4" class="st2" width="119.2" height="119.4"/>
	</g>
</g>
<g>
	<path class="st0" d="M96.4,89.8c-1,1.9-2.5,3.5-4.3,4.6c-1.8,1.1-3.9,1.7-6.1,1.7c-2.5,0-4.7-0.7-6.6-2l21-18.5l-0.2-0.3
		c-1.4-2.2-3.4-4.1-6-5.5c-2.6-1.4-5.3-2.2-8.2-2.2c-4.6,0-8.5,1.7-11.8,4.9c-3.3,3.3-5,7.3-5,11.9c0,4.6,1.7,8.5,5,11.8
		c3.3,3.3,7.3,5,11.8,5c3.2,0,6.1-0.8,8.7-2.5c2.6-1.6,4.7-3.8,6.1-6.4l0.2-0.4l-4.4-2.5L96.4,89.8z M86.1,72.6
		c2.7,0,5.2,0.8,7.3,2.5L76,90.4c-1.1-1.9-1.7-3.9-1.7-6.1c0-3.3,1.1-6.1,3.4-8.4C80,73.7,82.8,72.6,86.1,72.6z"/>
	<g>
		<defs>
			<path id="SVGID_7_" d="M96.4,89.8c-1,1.9-2.5,3.5-4.3,4.6c-1.8,1.1-3.9,1.7-6.1,1.7c-2.5,0-4.7-0.7-6.6-2l21-18.5l-0.2-0.3
				c-1.4-2.2-3.4-4.1-6-5.5c-2.6-1.4-5.3-2.2-8.2-2.2c-4.6,0-8.5,1.7-11.8,4.9c-3.3,3.3-5,7.3-5,11.9c0,4.6,1.7,8.5,5,11.8
				c3.3,3.3,7.3,5,11.8,5c3.2,0,6.1-0.8,8.7-2.5c2.6-1.6,4.7-3.8,6.1-6.4l0.2-0.4l-4.4-2.5L96.4,89.8z M86.1,72.6
				c2.7,0,5.2,0.8,7.3,2.5L76,90.4c-1.1-1.9-1.7-3.9-1.7-6.1c0-3.3,1.1-6.1,3.4-8.4C80,73.7,82.8,72.6,86.1,72.6z"/>
		</defs>
		<clipPath id="SVGID_8_">
			<use xlink:href="#SVGID_7_"  style="overflow:visible;"/>
		</clipPath>
		<linearGradient id="SVGID_9_" gradientUnits="userSpaceOnUse" x1="66.9921" y1="128.1002" x2="186.2605" y2="8.8317">
			<stop  offset="2.885251e-02" style="stop-color:#912AD4"/>
			<stop  offset="1" style="stop-color:#1E0AD7"/>
		</linearGradient>
		<rect x="67" y="8.8" class="st3" width="119.2" height="119.4"/>
	</g>
	<g>
		<defs>
			<path id="SVGID_10_" d="M119.2,67.5c-4.6,0-8.5,1.7-11.8,4.9c-3.3,3.3-5,7.3-5,11.9c0,4.6,1.7,8.5,5,11.8c3.3,3.3,7.3,5,11.8,5
				c4.6,0,8.5-1.6,11.8-4.9l5,4.6V67.7l-5,4.7C127.7,69.1,123.7,67.5,119.2,67.5z M119.2,96.1c-3.3,0-6.1-1.1-8.4-3.4
				c-2.3-2.3-3.4-5.1-3.4-8.4s1.1-6.1,3.4-8.4c2.3-2.3,5.1-3.4,8.4-3.4c3.2,0,6,1.2,8.3,3.4c2.3,2.3,3.4,5.1,3.4,8.3
				c0,3.2-1.2,6-3.4,8.3C125.2,94.9,122.4,96.1,119.2,96.1z"/>
		</defs>
		<clipPath id="SVGID_11_">
			<use xlink:href="#SVGID_10_"  style="overflow:visible;"/>
		</clipPath>
		<linearGradient id="SVGID_12_" gradientUnits="userSpaceOnUse" x1="66.9921" y1="128.1002" x2="186.2605" y2="8.8317">
			<stop  offset="2.885251e-02" style="stop-color:#912AD4"/>
			<stop  offset="1" style="stop-color:#1E0AD7"/>
		</linearGradient>
		<rect x="67" y="8.8" class="st4" width="119.2" height="119.4"/>
	</g>
	<g>
		<defs>
			<path id="SVGID_13_" d="M150.5,80.9l-3.6-1.1c-1.8-0.5-2.6-1.6-2.6-3.4c0-0.9,0.3-1.8,1-2.5c0.7-0.7,1.5-1.1,2.5-1.1
				c1.7,0,2.8,0.7,3.3,2.1l0.2,0.4l4.6-1.9l-0.2-0.4c-0.6-1.6-1.7-2.9-3.2-3.9c-1.5-1-3.1-1.4-4.8-1.4c-2.4,0-4.4,0.8-6.1,2.5
				c-1.7,1.7-2.5,3.7-2.5,6.1c0,1.9,0.6,3.7,1.8,5.2c1.2,1.5,2.7,2.6,4.6,3.2l3.6,1.1c1,0.3,1.8,0.9,2.5,1.8c0.7,0.9,1,1.9,1,3.1
				c0,1.5-0.5,2.6-1.5,3.6c-1,1-2.2,1.5-3.6,1.5c-2.2,0-3.7-0.9-4.6-2.8l-0.2-0.4l-4.5,2.4l0.2,0.4c0.9,1.7,2.2,3,3.8,4
				c1.6,1,3.3,1.5,5.2,1.5c1.9,0,3.6-0.5,5.2-1.4c1.5-0.9,2.8-2.1,3.6-3.6c0.9-1.5,1.4-3.3,1.4-5.2c0-2.3-0.7-4.4-2-6.2
				C154.4,82.7,152.6,81.5,150.5,80.9z"/>
		</defs>
		<clipPath id="SVGID_14_">
			<use xlink:href="#SVGID_13_"  style="overflow:visible;"/>
		</clipPath>
		<linearGradient id="SVGID_15_" gradientUnits="userSpaceOnUse" x1="66.9921" y1="128.1002" x2="186.2605" y2="8.8317">
			<stop  offset="2.885251e-02" style="stop-color:#912AD4"/>
			<stop  offset="1" style="stop-color:#1E0AD7"/>
		</linearGradient>
		<rect x="67" y="8.8" class="st5" width="119.2" height="119.4"/>
	</g>
	<g>
		<defs>
			<path id="SVGID_16_" d="M180.8,68.3v19.9c0,2-0.7,3.9-2.2,5.4c-1.5,1.6-3.3,2.3-5.5,2.3c-2,0-3.9-0.8-5.4-2.3
				c-1.6-1.5-2.3-3.3-2.3-5.5V68.3h-5.1v19.9c0,3.6,1.2,6.7,3.7,9.1c2.5,2.5,5.5,3.7,9.1,3.7c2.9,0,5.5-0.9,7.7-2.6v8.5
				c0,2.1-0.7,4-2.2,5.6c-1.5,1.6-3.4,2.4-5.8,2.4c-2.9,0-5.1-1.1-6.7-3.4l-0.3-0.4l-4,3l0.3,0.4c2.6,3.7,6.2,5.6,10.7,5.6
				c3.6,0,6.7-1.3,9.2-3.8c2.5-2.5,3.8-5.6,3.8-9.2V68.3H180.8z"/>
		</defs>
		<clipPath id="SVGID_17_">
			<use xlink:href="#SVGID_16_"  style="overflow:visible;"/>
		</clipPath>
		<linearGradient id="SVGID_18_" gradientUnits="userSpaceOnUse" x1="66.9921" y1="128.1002" x2="186.2605" y2="8.8317">
			<stop  offset="2.885251e-02" style="stop-color:#912AD4"/>
			<stop  offset="1" style="stop-color:#1E0AD7"/>
		</linearGradient>
		<rect x="67" y="8.8" class="st6" width="119.2" height="119.4"/>
	</g>
</g>
<g>
	<linearGradient id="SVGID_19_" gradientUnits="userSpaceOnUse" x1="52.5386" y1="12.9825" x2="10.0804" y2="86.5222">
		<stop  offset="2.885251e-02" style="stop-color:#912AD4"/>
		<stop  offset="1" style="stop-color:#1E0AD7"/>
	</linearGradient>
	<path class="st7" d="M61.8,99.2l-61-18.1V0.3l61,18.1V99.2z M7.9,75.8l46.7,14.3l0-66.6L7.7,9.4L7.9,75.8z"/>
</g>
<linearGradient id="SVGID_20_" gradientUnits="userSpaceOnUse" x1="6.5916" y1="96.9781" x2="67.331" y2="36.2387">
	<stop  offset="2.480159e-03" style="stop-color:#003ED7"/>
	<stop  offset="0.9944" style="stop-color:#D92BD4"/>
</linearGradient>
<polygon class="st8" points="54.6,96.9 19.3,109.7 19.3,36.3 54.6,23.5 "/>
</svg>
