<svg width="606" height="518" viewBox="0 0 606 518" fill="none" xmlns="http://www.w3.org/2000/svg">
<path d="M139.383 122.837L137.135 118.928L149.87 111.55L152.119 115.459L139.383 122.837Z" fill="#C85333"/>
<path d="M340.615 377.777L338.366 373.868L351.101 366.49L353.35 370.398L340.615 377.777Z" fill="#C85333"/>
<path d="M194.392 486.71L190.497 484.454L197.85 471.674L201.745 473.931L194.392 486.71Z" fill="#C85333"/>
<path d="M92.3229 348.674L88.4278 346.417L95.7807 333.637L99.6757 335.894L92.3229 348.674Z" fill="#C85333"/>
<path d="M447.06 198.34L447.609 202.82L433.013 204.622L432.464 200.142L447.06 198.34Z" fill="#C85333"/>
<path d="M598.952 312.304L599.882 316.72L585.494 319.772L584.564 315.356L598.952 312.304Z" fill="#C85333"/>
<path d="M567.375 495.628L568.305 500.044L553.917 503.096L552.986 498.68L567.375 495.628Z" fill="#C85333"/>
<path d="M295.244 111.294L292.063 108.102L302.462 97.6675L305.642 100.859L295.244 111.294Z" fill="#C85333"/>
<path d="M437.711 37.0596L434.531 33.8681L444.929 23.4333L448.11 26.6248L437.711 37.0596Z" fill="#C85333"/>
<path d="M63.2431 78.73L58.1943 75.0193L69.9115 58.965L74.9602 62.6757L63.2431 78.73Z" fill="#8ACFBF"/>
<path d="M39.3062 299.15L33.6217 301.776L25.3291 283.7L31.0136 281.074L39.3062 299.15Z" fill="#8ACFBF"/>
<path d="M363.228 285.584L357.544 288.211L349.251 270.134L354.936 267.508L363.228 285.584Z" fill="#8ACFBF"/>
<path d="M487.336 471.149L484.727 476.857L466.704 468.561L469.313 462.853L487.336 471.149Z" fill="#8ACFBF"/>
<path d="M545.766 367.191L542.723 370.244L530.666 358.144L533.708 355.091L545.766 367.191Z" fill="#8ACFBF"/>
<path d="M40.1036 505.31L35.6271 507.378L28.643 492.154L33.1195 490.086L40.1036 505.31Z" fill="#8ACFBF"/>
<path d="M299.086 505.894L294.61 507.962L287.626 492.738L292.102 490.67L299.086 505.894Z" fill="#8ACFBF"/>
<path d="M264.878 39.5155L261.366 43.04L250.553 32.1889L254.065 28.6643L264.878 39.5155Z" fill="#8ACFBF"/>
<path d="M549 17.2313L546.511 19.729L537.495 10.6818L539.984 8.1841L549 17.2313Z" fill="#8ACFBF"/>
<path d="M167.829 48.5402L162.501 46.4784L168.707 30.3297L174.035 32.3915L167.829 48.5402Z" fill="#2E5CE1"/>
<path d="M397.152 95.9076L394.525 98.5441L384.292 88.2757L386.919 85.6393L397.152 95.9076Z" fill="#2E5CE1"/>
<path d="M33.2354 417.048L27.9078 414.986L34.1136 398.838L39.4412 400.9L33.2354 417.048Z" fill="#2E5CE1"/>
<path d="M567.869 254.443L562.542 252.381L568.747 236.232L574.075 238.294L567.869 254.443Z" fill="#2E5CE1"/>
<path d="M111.027 496.753L106.632 493.094L117.643 479.772L122.039 483.43L111.027 496.753Z" fill="#2E5CE1"/>
<path d="M379.742 481.064L375.135 477.678L385.327 463.714L389.934 467.1L379.742 481.064Z" fill="#2E5CE1"/>
<path d="M186.321 288.323L182.155 290.737L175.154 278.569L179.321 276.155L186.321 288.323Z" fill="#2E5CE1"/>
<path d="M29.2837 129.758L28.6464 135.453L11.5054 133.521L12.1427 127.827L29.2837 129.758Z" fill="#2E5CE1"/>
<path d="M13.3746 12.2018L17.7165 8.24262L29.3157 21.0525L24.9738 25.0117L13.3746 12.2018Z" fill="#6343BA"/>
<path d="M115.295 262.758L110.214 259.814L118.838 244.825L123.919 247.769L115.295 262.758Z" fill="#6343BA"/>
<path d="M369.261 181.672L364.181 178.728L372.805 163.739L377.885 166.683L369.261 181.672Z" fill="#6343BA"/>
<path d="M591.042 172.603L588.109 167.505L603.046 158.85L605.979 163.949L591.042 172.603Z" fill="#6343BA"/>
<path d="M117.046 420.779L119.979 415.681L134.916 424.335L131.983 429.434L117.046 420.779Z" fill="#6343BA"/>
<path d="M271.626 410.78L271.254 404.905L288.468 403.808L288.84 409.683L271.626 410.78Z" fill="#6343BA"/>
<path d="M560.198 433.082L559.826 427.207L577.039 426.109L577.411 431.985L560.198 433.082Z" fill="#6343BA"/>
<path d="M390.943 0L326.601 7.92245L335.792 82.6759L337.2 82.519L358.244 79.8913L400.096 74.7535L390.943 0Z" fill="#2E5CE3"/>
<path fill-rule="evenodd" clip-rule="evenodd" d="M392.977 47.8064L394.112 56.9839L395.207 65.9653L342.247 72.515L334.737 11.0964L387.697 4.54663L388.949 14.7046L389.966 22.9016L392.977 47.8064ZM361.177 69.3766L394.346 65.2977L393.329 57.1007L360.786 62.0424L361.177 69.3766ZM393.25 56.3141L360.747 61.2558L360.316 53.0196L392.312 48.6661L393.25 56.3141ZM359.731 41.2196L360.317 52.2405L392.234 47.887L391.022 37.9644L359.731 41.2196ZM359.534 52.3578L340.916 54.9071L339.508 43.3372L358.987 41.3369L359.534 52.3578ZM358.948 27.0192L389.065 22.2344L388.244 15.6062L358.635 20.9793L358.948 27.0192ZM338.647 36.7095L358.556 34.4348L358.869 40.5139L339.352 42.5533L338.843 38.2784L338.647 36.7095ZM337.2 24.8651L338.569 35.9252L358.556 33.6504L357.891 21.1392L337.2 24.8651ZM359.338 34.3157L390.121 30.7859L390.903 37.1787L359.651 40.3948L359.338 34.3157ZM359.339 33.528L390.043 29.9982L389.183 23.017L359.026 27.8019L359.339 33.528ZM387.031 5.40683L388.205 14.8196L337.122 24.0756L335.597 11.7605L387.031 5.40683ZM359.574 53.1378L340.995 55.6479L342.95 71.6497L360.434 69.4925L360.004 61.374L359.574 53.1378Z" fill="url(#paint0_linear)"/>
<path d="M421.59 375.957L486.576 367.941L494.04 428.782L429.055 436.799L421.59 375.957Z" fill="#6343BA"/>
<path opacity="0.69" d="M457.161 420.28C467.055 420.28 475.075 412.238 475.075 402.317C475.075 392.396 467.055 384.354 457.161 384.354C447.267 384.354 439.247 392.396 439.247 402.317C439.247 412.238 447.267 420.28 457.161 420.28Z" fill="url(#paint1_linear)"/>
<path opacity="0.5" d="M456.418 414.164C449.847 414.164 445.349 409.654 445.114 409.419L446.796 407.772C446.835 407.811 452.233 413.223 459.43 411.419C465.884 409.811 468.27 403.85 468.543 403.183L470.734 404.006C470.421 404.791 467.644 411.772 459.977 413.694C458.765 414.047 457.552 414.164 456.418 414.164Z" fill="white"/>
<path opacity="0.5" d="M447.657 399.968C448.585 399.968 449.338 399.213 449.338 398.281C449.338 397.35 448.585 396.595 447.657 396.595C446.728 396.595 445.975 397.35 445.975 398.281C445.975 399.213 446.728 399.968 447.657 399.968Z" fill="white"/>
<path opacity="0.5" d="M465.844 397.851C466.773 397.851 467.526 397.096 467.526 396.165C467.526 395.233 466.773 394.478 465.844 394.478C464.916 394.478 464.163 395.233 464.163 396.165C464.163 397.096 464.916 397.851 465.844 397.851Z" fill="white"/>
<path d="M98.9971 197.708L81.9435 199.826L81.1612 199.904L61.0567 202.415L60.2744 202.493L40.9522 204.885L40.1699 205.003L16.506 207.905L15.7238 207.984L4.2243 209.435L3.52025 203.826L3.44202 203.042L2.07303 191.943L1.95569 191.158L0 175.078L13.2987 173.431L14.081 173.352L31.252 171.235L32.0342 171.117L56.5586 168.097L57.3409 168.019L79.8314 165.234L80.6136 165.155L94.7729 163.391L96.0245 173.509L96.1418 174.294L98.3713 192.453L98.4495 193.237L98.9971 197.708Z" fill="#6343BA"/>
<path fill-rule="evenodd" clip-rule="evenodd" d="M98.3723 192.451L98.4505 193.235C93.9915 193.706 88.2418 194.373 81.7489 195.196L81.9444 199.942L81.1622 200.02L80.9666 195.275C74.6693 195.981 67.6679 196.765 60.5101 197.55L61.0577 202.53L60.2754 202.609L59.7278 197.628C57.4853 197.876 55.2298 198.125 52.9743 198.373L52.9738 198.373C48.4628 198.87 43.9517 199.367 39.545 199.864L40.914 204.962L40.1317 205.041L38.7628 199.903C32.8078 200.585 27.0584 201.226 21.8127 201.811L21.8104 201.812L21.7967 201.813C19.8125 202.034 17.9005 202.248 16.0767 202.452L16.4679 207.943L15.6856 208.021L15.2944 202.491C12.593 202.79 10.0926 203.075 7.84807 203.33L7.84685 203.331L7.84542 203.331L7.84442 203.331C6.25553 203.512 4.79492 203.678 3.48207 203.825L3.40384 203.04C4.68948 202.897 6.12326 202.734 7.68165 202.558C9.96363 202.299 12.5128 202.01 15.2553 201.707L14.3948 189.549C12.0958 189.998 9.93961 190.412 7.94772 190.795L7.94349 190.796L7.94193 190.796C5.76789 191.213 3.78961 191.593 2.03485 191.941L1.95663 191.157C5.35953 190.49 9.58383 189.666 14.3557 188.764L13.2996 173.429L14.0819 173.351L15.2162 188.568C19.8066 187.678 24.9237 186.716 30.3241 185.701L30.326 185.701L30.3415 185.698C31.8378 185.417 33.3559 185.131 34.8905 184.842L31.292 171.154L32.0743 171.076L35.6728 184.725C39.129 184.088 42.6656 183.424 46.2314 182.755L46.2322 182.754L46.2338 182.754C50.1325 182.022 54.0661 181.284 57.9677 180.567L56.5987 168.095L57.3809 168.017L58.7108 180.45C64.063 179.466 69.355 178.483 74.4141 177.543L74.4159 177.542C76.4179 177.17 78.3833 176.805 80.3017 176.449L79.8714 165.232L80.6537 165.154L81.0839 176.331C83.822 175.822 86.4623 175.331 88.9705 174.866C91.4786 174.4 93.8547 173.959 96.0645 173.547L96.1428 174.331C93.9117 174.75 91.6301 175.168 89.3058 175.594L89.3057 175.594C86.6182 176.087 83.8735 176.59 81.0839 177.116L81.7489 194.294C88.2027 193.588 93.9133 192.961 98.3723 192.451ZM15.2161 189.429L16.0766 201.627C17.664 201.448 19.3169 201.26 21.0254 201.065L21.0258 201.065C26.4316 200.45 32.3947 199.772 38.6062 199.116L35.0468 185.703C30.4758 186.546 26.1077 187.372 22.0312 188.144C19.6545 188.594 17.3769 189.025 15.2161 189.429ZM39.3893 199L35.8299 185.508C42.9095 184.175 50.4194 182.763 58.0075 181.351L59.6502 196.725C55.4217 197.194 51.1314 197.677 46.8763 198.157C44.3616 198.441 41.8592 198.723 39.3893 199ZM58.7502 181.231L60.4321 196.645C67.629 195.86 74.6304 195.076 80.9277 194.37L80.2628 177.231C76.1478 177.987 71.9527 178.771 67.7399 179.557C64.7448 180.116 61.7407 180.677 58.7502 181.231Z" fill="url(#paint2_linear)"/>
<path d="M246.181 133.739C245.399 136.837 244.656 139.897 243.874 142.995C243.834 143.191 243.795 143.387 243.717 143.583C234.525 148.133 225.334 152.722 216.103 157.271C215.438 156.8 214.773 156.33 214.108 155.82C212.543 154.683 210.94 153.545 209.375 152.447C210.04 151.859 210.744 151.231 211.448 150.643C214.147 148.29 216.807 146.093 219.427 144.015C218.489 142.446 217.55 140.838 216.572 139.269C212.974 141.348 209.532 142.328 206.95 141.583C199.988 139.622 197.641 125.032 196.389 117.188C195.372 110.795 195.372 105.069 195.803 100.363C208.123 103.971 218.293 96.4799 219.114 95.8524C223.104 108.56 225.647 112.364 227.289 113.227C227.524 113.345 233.86 116.247 233.939 116.129C235.738 122.326 237.537 128.523 239.336 134.72C241.566 134.367 243.874 134.053 246.181 133.739Z" fill="#CD55AF"/>
<path d="M233.43 91.5775C230.849 89.0674 227.524 88.283 226.625 88.0869C224.395 87.6555 222.439 87.8124 221.735 87.8516C217.668 85.8122 210.51 82.8314 201.122 82.2039C191.344 81.5372 183.56 83.6943 179.219 85.2631C179.844 86.7927 183.99 96.2447 194.629 99.9706C195.021 100.088 195.412 100.245 195.764 100.324C208.085 103.932 218.254 96.4408 219.076 95.8133C219.076 97.3036 219.115 107.736 227.016 113.658C229.519 115.541 232.101 116.443 234.134 116.874C234.565 116.012 235.112 114.835 235.621 113.423C236.168 111.894 237.029 108.913 237.146 105.305C237.264 101.343 237.459 95.4995 233.43 91.5775Z" fill="black"/>
<path d="M224.943 115.892C226.899 107.068 229.597 97.2235 232.179 97.3804C232.961 97.4196 233.47 98.3217 233.9 99.1453C233.9 99.1453 236.169 103.263 231.788 117.892C229.48 117.265 227.212 116.559 224.943 115.892Z" fill="#CD55AF"/>
<path d="M202.374 110.636L202.178 128.364L208.123 122.52L202.374 110.636Z" fill="#933A67"/>
<path d="M207.185 131.7L206.364 129.072C206.56 129.033 210.784 127.582 212.231 122.601L214.852 123.385C213.013 129.817 207.42 131.621 207.185 131.7Z" fill="black"/>
<path d="M210.315 114.56C211.222 114.56 211.957 113.823 211.957 112.913C211.957 112.003 211.222 111.266 210.315 111.266C209.407 111.266 208.672 112.003 208.672 112.913C208.672 113.823 209.407 114.56 210.315 114.56Z" fill="black"/>
<path d="M198.58 116.677C199.487 116.677 200.222 115.939 200.222 115.03C200.222 114.12 199.487 113.382 198.58 113.382C197.672 113.382 196.937 114.12 196.937 115.03C196.937 115.939 197.672 116.677 198.58 116.677Z" fill="black"/>
<path d="M206.6 107.555L214.983 103.776L216.106 106.28L207.722 110.059L206.6 107.555Z" fill="black"/>
<path d="M191.637 109.107L200.791 108.269L201.04 111.003L191.886 111.841L191.637 109.107Z" fill="black"/>
<path d="M123.286 155.623C111.513 147.544 106.389 147.269 102.947 147.975C100.052 148.564 97.3534 150.054 92.8944 152.525C85.893 156.408 86.0103 157.937 86.0886 158.29C86.245 159.114 87.3402 159.585 87.7314 159.741C88.7092 160.134 89.7653 160.173 90.7431 159.977C86.4797 164.487 86.91 165.664 87.0664 165.977C87.4184 166.683 88.4745 166.762 88.9048 166.84C89.6479 166.919 90.3911 166.801 91.056 166.527C91.4863 166.762 92.0339 166.801 92.3077 166.84C94.811 167.115 96.884 165.036 98.0574 163.899C99.8958 162.134 102.477 159.938 106.154 157.427C108.031 158.369 110.261 159.702 112.53 161.506C113.742 162.487 117.693 166.84 117.341 168.135C116.754 170.331 112.608 170.958 109.635 171.429C103.22 172.449 99.1917 171.233 98.3312 173.076C97.901 174.018 98.4877 175.116 98.6441 175.39C100.052 177.979 104.472 178.096 107.093 178.175C118.866 178.567 124.616 178.959 127.823 180.371C132.673 182.489 134.629 187.117 136.076 193.471L146.715 176.841C137.954 166.566 129.427 159.859 123.286 155.623Z" fill="#CD55AF"/>
<path d="M347.174 118.367C347.213 119.034 347.213 119.661 347.252 120.289L326.131 108.405C333.641 83.5001 338.647 67.0277 339.234 64.9883C339.469 64.2039 340.173 61.7722 342.168 60.9486C342.598 60.7525 343.38 60.3995 343.967 60.7525C345.844 61.7722 343.889 68.7142 342.48 73.852C341.503 77.3818 340.525 80.2449 339.782 82.2059L358.282 79.9311C354.215 86.8731 350.186 93.7758 346.118 100.718C346.157 101.228 346.196 101.698 346.235 102.208C346.274 102.6 346.314 102.993 346.314 103.424C346.548 106.64 346.744 109.621 346.9 112.327C346.939 112.719 346.939 113.111 346.979 113.503C346.979 113.621 346.979 113.778 346.979 113.896C347.018 114.641 347.057 115.347 347.096 116.092C347.096 116.17 347.096 116.249 347.096 116.327C347.135 116.955 347.135 117.622 347.174 118.249C347.135 118.249 347.174 118.328 347.174 118.367Z" fill="#CD55AF"/>
<path d="M347.213 120.369V120.33L326.092 108.446C323.041 118.487 319.638 129.939 315.883 142.372C308.06 139.234 296.835 135.508 282.91 133.312C276.847 132.371 270.628 131.39 263.823 131.233C262.649 131.194 261.437 131.194 260.224 131.233C259.794 131.233 259.364 131.272 258.894 131.272C258.62 131.272 258.347 131.312 258.112 131.312C256.743 131.39 255.374 131.468 253.966 131.625C253.888 131.625 253.809 131.625 253.77 131.625C253.027 131.704 252.284 131.821 251.502 131.9C251.032 127.233 250.563 122.605 250.133 117.938C248.842 123.193 247.512 128.449 246.182 133.704C245.4 136.802 244.657 139.862 243.874 142.96C243.835 143.156 243.796 143.352 243.718 143.548C241.371 153 239.024 162.452 236.638 171.865C229.794 167.002 222.949 162.099 216.104 157.236C215.439 156.765 214.774 156.295 214.109 155.785C212.544 154.648 210.941 153.51 209.376 152.412C203.783 148.412 198.19 144.45 192.596 140.45C194.63 144.803 196.625 149.274 198.581 153.824C199.128 155.079 199.637 156.295 200.145 157.55C199.598 157.942 198.894 158.413 198.15 159.001C198.15 159.001 197.29 159.668 196.39 160.374C175.582 177.317 171.866 205.006 171.005 216.184C167.798 208.222 163.3 199.202 156.964 189.946C153.678 185.161 150.197 180.768 146.677 176.728L136.038 193.358C138.463 203.869 139.558 218.968 150.314 234.539C150.901 235.402 151.488 236.225 152.074 237.049C156.22 242.932 160.679 248.384 167.094 249.403C173.548 250.423 180.745 246.775 187.785 239.441C194.982 231.911 202.062 220.537 208.007 206.222C210.784 214.419 213.561 222.93 216.182 231.715C216.26 232.029 216.377 232.342 216.456 232.656L228.894 237.637L230.146 238.147L231.436 238.657L238.438 241.442C250.641 238.069 262.845 234.735 275.048 231.362C275.087 230.931 275.126 230.46 275.166 229.989C275.244 229.244 275.283 228.46 275.361 227.715C275.361 227.636 275.361 227.518 275.4 227.44C275.478 226.303 275.596 225.204 275.674 224.067C275.752 223.087 275.831 222.145 275.909 221.165C275.987 220.184 276.065 219.204 276.143 218.184C276.183 217.517 276.261 216.811 276.3 216.145C276.417 214.419 276.535 212.654 276.652 210.889C276.73 209.634 276.808 208.379 276.887 207.124C276.926 206.575 276.965 205.987 277.004 205.438C277.082 204.182 277.16 202.927 277.239 201.633C277.786 191.789 278.177 182.141 278.451 172.767C278.921 172.885 279.39 173.003 279.859 173.159C279.977 173.199 280.133 173.238 280.25 173.277C284.436 174.336 290.029 175.591 296.717 176.454C297.578 176.572 298.438 176.689 299.26 176.768C305.557 177.552 311.072 178.258 315.961 178.493C325.075 178.964 331.842 177.905 337.005 173.552C342.872 168.61 344.866 160.805 346.04 149.745C346.47 145.784 346.783 141.352 347.135 136.528C347.604 129.743 347.448 124.095 347.213 120.369Z" fill="#8ACFBF"/>
<path d="M243.718 143.547C241.371 152.999 239.024 162.451 236.638 171.864C229.793 167.001 222.948 162.098 216.103 157.235C225.334 152.686 234.526 148.136 243.718 143.547Z" fill="white"/>
<path d="M187.786 239.519C180.745 246.892 173.548 250.5 167.094 249.481C160.68 248.461 156.221 243.009 152.075 237.126C155.79 236.695 159.78 236.459 163.965 236.459C173.196 236.459 181.606 237.636 187.786 239.519Z" fill="#6343BA"/>
<path d="M346.04 149.784C344.866 160.844 342.872 168.649 337.005 173.59C331.842 177.944 325.075 178.964 315.961 178.532C318.973 173.904 323.08 168.884 327.969 164.021C334.149 157.824 340.525 152.882 346.04 149.784Z" fill="#6343BA"/>
<path d="M377.369 254.775C374.514 257.991 371.228 260.579 367.747 262.776C354.644 271.09 338.999 274.228 334.305 288.778C333.483 291.288 333.366 293.014 333.171 294.701C332.975 296.583 332.701 298.387 331.293 301.172C326.717 310.31 317.525 315.017 310.406 317.605C307.395 318.703 304.774 319.409 303.014 319.919C299.494 320.939 295.621 322.272 291.358 324.076C291.358 323.292 291.358 322.468 291.358 321.645C291.358 320.507 291.319 319.37 291.319 318.233C291.319 317.644 291.28 317.056 291.28 316.468C291.28 315.84 291.241 315.252 291.201 314.624C291.201 314.115 291.162 313.605 291.123 313.134C291.084 312.624 291.084 312.114 291.045 311.604C291.006 310.585 290.928 309.565 290.849 308.545C290.81 308.035 290.771 307.526 290.732 306.977C290.693 306.467 290.654 305.957 290.615 305.408C290.497 303.643 290.302 301.878 290.106 300.074C290.067 299.721 290.028 299.407 289.989 299.054C289.95 298.505 289.872 297.995 289.793 297.446C289.598 295.838 289.402 294.191 289.167 292.544C289.011 291.445 288.855 290.347 288.698 289.249C288.62 288.7 288.542 288.19 288.424 287.641C288.424 287.563 288.385 287.484 288.385 287.406C288.307 286.896 288.229 286.425 288.151 285.915C287.955 284.778 287.759 283.68 287.564 282.542C287.486 282.189 287.446 281.836 287.368 281.483C287.29 281.13 287.212 280.738 287.134 280.346C287.016 279.797 286.899 279.248 286.782 278.699C286.703 278.385 286.664 278.071 286.586 277.797C286.312 276.542 286.038 275.247 285.725 273.953C285.413 272.659 285.1 271.325 284.787 270.031C284.669 269.482 284.513 268.972 284.396 268.423C284.278 268.031 284.2 267.639 284.083 267.247C284.044 267.05 284.004 266.894 283.926 266.698C283.809 266.227 283.652 265.756 283.535 265.246C283.379 264.737 283.261 264.227 283.105 263.717C282.909 263.011 282.714 262.344 282.518 261.677C282.127 260.383 281.736 259.128 281.736 259.128C280.445 254.892 279.115 251.049 277.864 247.676C276.886 244.734 275.908 241.793 275.008 238.89C275.008 238.773 275.008 238.616 275.047 238.459C275.126 237.282 275.204 236.067 275.321 234.812C275.478 233.047 275.712 231.399 275.947 229.791C275.673 229.87 275.439 229.948 275.165 230.027C275.243 229.282 275.282 228.497 275.36 227.752C275.36 227.674 275.36 227.556 275.399 227.477C275.478 226.34 275.595 225.242 275.673 224.105C275.751 223.124 275.83 222.183 275.908 221.202C275.986 220.222 276.064 219.241 276.143 218.222C276.182 217.555 276.26 216.849 276.299 216.182C276.416 214.456 276.534 212.691 276.651 210.927C276.729 209.672 276.808 208.416 276.886 207.161C276.886 206.848 276.925 206.573 276.964 206.259C276.964 205.985 277.003 205.75 277.003 205.475C277.081 204.22 277.16 202.965 277.238 201.671C277.433 198.337 277.59 195.003 277.746 191.709C278.059 185.316 278.255 179.001 278.45 172.805C278.92 172.922 279.389 173.04 279.858 173.197C279.976 173.236 280.132 173.275 280.25 173.315C280.523 173.393 280.797 173.471 281.071 173.511C281.11 173.511 281.149 173.511 281.188 173.55C285.256 174.57 290.536 175.668 296.756 176.491C297.616 176.609 298.477 176.727 299.298 176.805C302.701 179.864 306.417 182.884 310.524 185.826C340.68 207.397 372.871 210.613 389.807 210.927C390.629 234.851 383.745 247.597 377.369 254.775Z" fill="#6343BA"/>
<path d="M234.487 295.209C238.007 310.231 243.444 328.115 252.166 347.411C248.137 350.431 243.952 353.765 239.611 357.452C236.521 352.039 232.492 343.999 229.558 333.684C227.837 327.644 225.412 319.055 224.591 309.133C225.999 307.172 227.446 305.211 228.854 303.25C230.771 300.583 232.648 297.916 234.487 295.209Z" fill="#6343BA"/>
<path d="M219.428 143.976C219.193 143.858 218.724 143.701 218.176 143.819C217.316 144.015 216.612 144.996 216.572 146.172C216.572 146.957 216.807 154.173 222.361 157.703C223.769 158.605 226.273 160.174 228.659 159.389C234.682 157.468 231.709 143.78 241.019 136.25C242.505 135.034 243.874 134.328 244.734 133.936C243.991 133.583 242.7 133.033 241.136 133.19C233.196 133.896 230.771 150.722 225.295 150.683C223.926 150.683 221.892 149.545 219.428 143.976Z" fill="#6343BA"/>
<path d="M364.658 259.793C356.874 262.774 350.89 265.794 346.861 267.951C340.016 271.638 337.435 273.716 332.663 274.148C329.886 274.383 325.387 274.187 317.838 269.99C307.2 264.107 300.081 255.636 294.957 248.184C289.481 240.222 281.463 226.299 276.925 206.297C276.925 206.022 276.964 205.787 276.964 205.513C277.043 204.258 277.121 203.002 277.199 201.708C277.395 198.374 277.551 195.041 277.708 191.746C284.357 203.591 297.969 224.103 322.571 240.654C338.451 251.322 353.667 256.852 364.658 259.793Z" fill="#56369B"/>
<path d="M309.546 314.974C307.043 315.719 304.344 316.661 301.488 317.876C297.616 319.524 294.213 321.288 291.358 323.053C291.358 322.7 291.358 322.23 291.358 321.641C291.358 320.896 291.319 319.72 291.319 318.229C291.319 317.641 291.28 317.053 291.28 316.464C291.28 315.837 291.241 315.249 291.202 314.621C291.202 314.111 291.162 313.601 291.123 313.131C291.084 312.621 291.084 312.111 291.045 311.601C291.006 310.581 290.928 309.562 290.85 308.542C290.81 308.032 290.771 307.522 290.732 306.973C290.693 306.463 290.654 305.953 290.615 305.404C290.497 303.639 290.302 301.875 290.106 300.07C292.649 302.973 296.13 306.385 300.628 309.601C303.835 311.915 306.886 313.641 309.546 314.974Z" fill="#56369B"/>
<path d="M305.244 386.709C305.205 384.512 305.166 382.316 305.127 380.12C305.009 371.335 304.853 362.549 304.736 353.764C303.758 352.391 302.702 351.019 301.607 349.646C299.846 347.528 298.125 345.645 296.522 344.037C296.483 343.998 296.483 343.998 296.444 343.959C295.857 343.371 295.27 342.822 294.723 342.272C293.275 340.9 291.985 339.802 290.889 338.86C290.968 337.448 291.085 336.036 291.124 334.546C291.163 333.879 291.202 333.252 291.202 332.585C291.32 329.84 291.359 326.977 291.398 324.074C291.398 323.29 291.398 322.466 291.398 321.643C291.398 320.505 291.359 319.368 291.359 318.231C291.359 317.642 291.32 317.054 291.32 316.466C291.32 315.838 291.281 315.25 291.241 314.622C291.241 314.112 291.202 313.603 291.163 313.132C291.124 312.622 291.124 312.112 291.085 311.602C291.046 310.583 290.968 309.563 290.889 308.543C290.85 308.033 290.811 307.523 290.772 306.974C290.733 306.465 290.694 305.955 290.655 305.406C290.498 303.327 290.303 301.209 290.068 299.052C289.99 298.503 289.951 297.993 289.872 297.444C289.677 295.836 289.481 294.189 289.247 292.541C289.09 291.443 288.934 290.345 288.777 289.247C288.699 288.698 288.621 288.188 288.503 287.639C288.503 287.56 288.464 287.482 288.464 287.404C288.386 286.894 288.308 286.423 288.23 285.913C288.034 284.776 287.838 283.678 287.643 282.54C287.565 282.187 287.526 281.834 287.447 281.481C287.369 281.128 287.291 280.736 287.213 280.344C287.095 279.795 286.978 279.246 286.861 278.697C286.782 278.383 286.743 278.069 286.665 277.795C286.391 276.54 286.117 275.245 285.805 273.951C285.492 272.657 285.179 271.323 284.866 270.029C284.748 269.48 284.592 268.97 284.475 268.421C284.357 268.029 284.279 267.637 284.162 267.244C284.123 267.048 284.084 266.891 284.005 266.695C283.888 266.225 283.732 265.715 283.614 265.244C283.458 264.734 283.34 264.225 283.184 263.715C282.988 263.009 282.793 262.342 282.597 261.675C282.206 260.381 281.815 259.126 281.815 259.126C281.737 258.93 281.658 258.734 281.619 258.498C281.267 257.518 280.954 256.537 280.602 255.557C279.703 252.929 278.803 250.341 277.943 247.674C276.965 244.732 275.987 241.791 275.087 238.888C275.087 238.771 275.087 238.614 275.126 238.457C275.205 237.28 275.283 236.065 275.4 234.809C275.557 233.045 275.791 231.397 276.026 229.789C275.752 229.868 275.518 229.946 275.244 230.025C273.014 230.731 270.785 231.397 268.594 232.103C268.203 232.221 267.851 232.339 267.499 232.456C264.292 233.437 261.085 234.456 257.916 235.437C257.564 235.555 257.173 235.672 256.821 235.79C252.284 237.202 247.747 238.614 243.249 240.026C242.858 240.143 242.506 240.261 242.114 240.379C240.941 240.732 239.768 241.124 238.555 241.477L231.554 238.692L230.263 238.182L229.011 237.673C225.295 235.947 221.58 234.221 217.864 232.495C217.394 232.299 216.964 232.064 216.534 231.868C216.456 231.829 216.377 231.79 216.299 231.75C216.143 231.672 215.986 231.633 215.869 231.554C216.104 232.025 216.299 232.495 216.534 232.966C216.651 233.241 216.808 233.515 216.925 233.79C216.182 234.731 215.439 235.712 214.696 236.692C210.589 242.104 206.091 248.262 201.28 255.086C198.463 259.047 195.569 263.283 192.596 267.715C192.205 268.303 191.814 268.892 191.423 269.48C188.763 273.48 186.064 277.638 183.326 281.952C177.459 291.247 172.374 299.248 168.189 306.268C167.837 306.818 167.524 307.367 167.211 307.955C157.276 324.78 152.544 335.88 153.717 345.998C154.46 352.548 158.137 359.529 165.021 368.197C165.412 368.707 165.842 369.217 166.234 369.727C168.972 373.099 172.179 376.708 175.856 380.669C175.934 380.747 175.973 380.826 176.051 380.865L178.202 380.081L179.298 379.688L190.641 375.531L204.252 385.924L206.56 387.689L209.102 389.65L213.131 352.587C213.092 352.548 213.092 352.548 213.053 352.509C209.493 348.94 204.956 345.057 199.207 341.253C206.755 332.507 214.344 323.094 221.814 313.054C222.44 312.191 223.105 311.328 223.731 310.465C224.083 309.994 224.396 309.563 224.748 309.092C224.787 309.014 224.865 308.935 224.904 308.896C226.273 307.014 227.642 305.131 229.011 303.209C230.889 300.582 232.766 297.915 234.605 295.169C236.482 303.249 238.946 312.151 242.154 321.643C242.74 323.447 243.405 325.251 244.07 327.094C246.417 333.605 249.155 340.39 252.284 347.332C252.91 348.744 253.575 350.156 254.24 351.568C259.481 362.706 265.074 372.668 270.589 381.453C274.227 378.629 277.904 375.845 281.541 373.021L298.634 391.925L300.355 393.847L305.557 399.612C305.401 395.337 305.322 391.023 305.244 386.709Z" fill="#C85333"/>
<path d="M291.201 332.585C291.162 333.252 291.162 333.919 291.123 334.546C290.38 333.37 289.558 332.271 288.62 331.212C286.234 328.585 283.339 326.428 280.484 324.349C275.204 320.466 269.923 316.466 267.42 310.191C264.408 302.66 264.682 293.64 264.799 285.678C264.917 276.697 265.934 267.794 267.459 258.969C268.945 250.458 270.979 240.81 267.381 232.496C267.772 232.378 268.124 232.26 268.476 232.143C271.566 239.594 270.471 248.223 269.141 255.988C267.537 265.362 266.208 274.657 265.973 284.188C265.855 288.816 265.934 293.404 266.247 298.032C266.52 302.425 267.068 306.974 268.985 310.975C272.153 317.682 278.724 321.486 284.356 325.879C286.899 327.84 289.285 329.997 291.201 332.585Z" fill="#8ACFBF"/>
<path d="M305.244 386.706C303.993 380.273 302.663 373.881 301.215 367.488C299.299 359.055 297.539 350.427 294.683 342.269C295.231 342.779 295.818 343.367 296.404 343.956C296.444 343.995 296.444 343.995 296.483 344.034C299.142 352.584 301.059 361.448 303.015 370.194C303.758 373.528 304.462 376.822 305.127 380.156C305.205 382.313 305.205 384.509 305.244 386.706Z" fill="#8ACFBF"/>
<path d="M300.237 393.922L298.516 392C296.169 384.901 292.923 378.234 289.324 371.684C286.117 365.801 282.949 359.918 280.093 353.839C277.355 348.034 274.578 342.23 270.823 336.974C264.487 328.111 255.804 320.267 252.714 309.442C249.076 296.617 255.1 283.439 257.564 271.006C259.872 259.397 260.537 247.082 256.703 235.786C257.055 235.669 257.447 235.551 257.799 235.434C261.827 247.278 261.006 260.142 258.503 272.3C255.765 285.557 249.428 299.519 255.178 312.854C259.715 323.365 268.868 330.974 274.696 340.7C278.138 346.426 280.719 352.623 283.692 358.585C286.704 364.624 290.146 370.429 293.236 376.469C296.13 382.156 298.399 387.96 300.237 393.922Z" fill="#8ACFBF"/>
<path d="M291.28 316.463C284.748 308.737 282.401 297.363 281.11 287.676C279.702 277.047 279.937 266.301 280.602 255.594C280.954 256.574 281.267 257.555 281.619 258.535C281.423 261.869 281.306 265.242 281.267 268.575C281.11 282.577 282.245 297.873 288.698 310.58C289.442 312.031 290.263 313.404 291.202 314.659C291.241 315.247 291.241 315.875 291.28 316.463Z" fill="#8ACFBF"/>
<path d="M242.192 301.6C242.075 310.15 242.662 318.7 243.952 327.132C243.287 325.289 242.662 323.485 242.036 321.681C241.175 314.347 240.862 306.934 241.058 299.521C241.606 279.951 245.752 259.752 241.997 240.377C242.388 240.26 242.74 240.142 243.131 240.024C244.891 249.084 244.969 258.379 244.461 267.635C243.835 278.97 242.388 290.226 242.192 301.6Z" fill="#8ACFBF"/>
<path d="M229.949 268.73C228.033 277.947 226.273 287.085 225.451 296.459C225.099 300.577 224.865 304.735 224.786 308.892C224.747 308.97 224.669 309.049 224.63 309.088C224.278 309.559 223.965 309.99 223.613 310.461C223.887 296.42 225.803 282.614 228.737 268.77C230.654 259.671 232.335 250.336 230.771 241.08C230.614 240.1 230.419 239.119 230.184 238.178L231.475 238.688C231.788 240.061 232.023 241.394 232.179 242.806C233.313 251.513 231.749 260.22 229.949 268.73Z" fill="#8ACFBF"/>
<path d="M217.355 269.949C209.688 300.07 187.511 329.25 194.708 361.724C196.781 371.098 201.396 379.53 206.403 387.688L204.095 385.923C198.775 376.941 194.082 367.607 192.713 357.057C190.757 341.761 194.903 326.387 200.301 312.189C209.766 287.402 225.451 258.654 216.416 231.866C216.846 232.062 217.315 232.298 217.746 232.494C221.383 244.574 220.444 257.791 217.355 269.949Z" fill="#8ACFBF"/>
<path d="M192.478 267.752C192.36 273.949 191.578 280.107 190.405 286.186C187.862 299.089 183.403 311.483 179.766 324.072C176.089 336.897 172.999 350.35 174.564 363.763C175.229 369.489 176.91 374.745 179.179 379.726L178.084 380.118C175.307 373.843 173.468 367.254 173.077 360.155C172.373 347.095 175.62 334.074 179.257 321.641C184.186 304.855 190.6 287.206 191.304 269.517C191.696 268.929 192.087 268.341 192.478 267.752Z" fill="#8ACFBF"/>
<path d="M168.541 319.015C168.267 335.88 165.099 352.587 166.116 369.452C166.116 369.57 166.116 369.687 166.116 369.766C165.685 369.256 165.294 368.746 164.903 368.236C164.121 348.273 168.736 327.879 167.093 307.994C167.406 307.445 167.758 306.896 168.071 306.308C168.501 310.543 168.619 314.779 168.541 319.015Z" fill="#8ACFBF"/>
<path d="M271.136 434.717C267.811 442.326 262.726 453.621 255.842 467.073C246.846 484.683 234.408 509.039 230.418 507.588C229.714 507.313 229.323 506.293 229.166 504.568C228.658 498.332 231.435 483.467 234.603 466.642C236.481 456.68 238.358 448.483 239.688 442.796C235.62 439.188 201.787 408.165 177.301 388.986C174.485 386.79 171.826 384.75 169.322 382.907C176.363 380.475 183.403 378.005 190.444 375.573L208.905 389.692C210.431 375.455 211.917 361.179 213.443 346.942C214.225 348.04 215.477 349.688 216.924 351.766C218.919 354.59 220.757 357.296 222.439 359.885C232.843 375.965 238.084 388.241 243.247 397.85C248.058 406.792 255.92 419.107 268.984 432.599C269.728 433.266 270.432 434.011 271.136 434.717Z" fill="#8ACFBF"/>
<path d="M347.329 436.64C346.625 444.248 345.491 454.955 343.692 467.741C340.563 489.9 336.69 517.629 333.092 517.59C332.427 517.59 331.684 516.609 330.902 514.021C328.829 507.118 326.364 488.881 323.783 447.268C318.62 442.248 298.007 420.598 294.448 416.598L274.343 396.321C272.739 394.831 270.588 392.791 268.085 390.321C266.872 389.144 265.542 387.811 264.134 386.438C266.246 384.83 268.359 383.183 270.471 381.575C274.108 378.751 277.785 375.966 281.423 373.142L305.438 399.694C305.204 384.398 304.969 369.103 304.734 353.767C304.695 352.081 304.695 350.395 304.656 348.669C306.377 352.159 308.959 357.337 311.971 363.69C312.518 364.867 313.066 365.965 313.574 367.063C320.576 381.967 324.135 390.634 328.437 399.969C332.192 408.166 337.707 419.5 345.256 432.914C345.921 434.129 346.625 435.345 347.329 436.64Z" fill="#8ACFBF"/>
<path d="M271.136 434.719C267.811 442.328 262.726 453.623 255.842 467.076C246.846 484.686 234.408 509.041 230.418 507.59C229.714 507.316 229.323 506.296 229.167 504.57L229.401 504.374C235.073 509.12 263.509 445.113 269.024 432.562C269.728 433.268 270.432 434.013 271.136 434.719Z" fill="#6343BA"/>
<path d="M347.329 436.635C346.625 444.244 345.491 454.951 343.691 467.737C340.562 489.896 336.69 517.625 333.091 517.585C332.427 517.585 331.683 516.605 330.901 514.016C336.925 516.017 343.652 449.303 345.217 432.87C345.921 434.125 346.625 435.341 347.329 436.635Z" fill="#6343BA"/>
<path d="M222.478 359.845L216.259 399.654L192.243 385.495L177.38 388.986C174.564 386.789 171.904 384.75 169.401 382.907C176.441 380.475 183.482 378.004 190.522 375.572L208.984 389.692C210.51 375.455 211.996 361.179 213.521 346.942C214.304 348.04 215.555 349.687 217.002 351.766C218.958 354.55 220.796 357.257 222.478 359.845Z" fill="#6343BA"/>
<path d="M313.574 367.063L311.345 410.793L282.713 382.398L268.085 390.321C266.872 389.144 265.542 387.811 264.134 386.438C266.246 384.83 268.359 383.183 270.471 381.575C274.108 378.751 277.785 375.966 281.423 373.142L305.438 399.694C305.204 384.398 304.969 369.103 304.734 353.767C304.695 352.081 304.695 350.395 304.656 348.669C306.377 352.159 308.959 357.337 311.971 363.69C312.518 364.867 313.066 365.965 313.574 367.063Z" fill="#6343BA"/>
<path d="M514.541 20.7503C497.214 22.1623 489.469 39.1838 473.589 58.0486C437.096 101.387 409.951 92.2486 394.696 126.998C386.013 146.804 384.762 172.728 395.244 179.866C405.14 186.573 416.366 172.297 447.422 170.767C465.18 169.904 471.555 174.101 483.289 175.003C483.289 175.003 489.43 175.434 497.214 174.493C504.176 173.63 525.219 171.081 539.457 154.02C550.722 140.489 556.315 119.585 550.683 104.093C543.134 83.424 536.602 71.9325 536.25 66.3241C536.093 63.7748 536.445 61.8138 536.523 60.9117C538.323 44.4785 543.877 37.615 539.144 29.9671C534.411 22.4368 523.107 20.0444 514.541 20.7503Z" fill="url(#paint3_linear)"/>
<path d="M539.77 53.9724C538.362 41.6181 527.684 31.1856 522.834 32.7936C520.018 33.7349 520.878 38.206 516.772 44.9126C513.29 50.5995 508.597 54.0509 505.311 56.0511C504.842 62.0126 504.372 68.0132 503.903 74.0139C503.786 75.5827 503.668 77.1907 503.512 78.7595C503.434 79.74 503.355 80.7205 503.277 81.701C503.277 81.7403 503.277 81.8187 503.277 81.8579C503.668 87.4272 505.311 97.742 512.899 106.645C514.542 108.567 516.263 110.214 517.945 111.548C521.583 94.2907 522.795 87.7409 522.991 85.7799C522.991 85.7407 522.991 85.7015 522.991 85.7015C522.991 85.623 523.108 84.4464 523.225 83.1522C523.343 81.7795 523.499 80.3676 523.616 78.9949C523.812 77.0338 524.008 75.0728 524.164 73.1118C527.723 74.2492 530.97 74.1708 533.434 72.9157C539.458 69.7781 540.435 59.8555 539.77 53.9724Z" fill="#CD55AF"/>
<path d="M508.284 56.0908C505.702 52.6786 499.64 45.1484 496.354 46.2858C496.198 46.325 496.041 46.4034 495.924 46.5211C493.342 49.1096 507.971 67.1116 507.971 67.1116C508.049 63.4642 508.166 59.7775 508.284 56.0908Z" fill="#CD55AF"/>
<path d="M529.874 46.3193C533.434 49.1824 536.993 52.0455 540.553 54.9085C538.127 55.4968 535.702 56.0851 533.316 56.6342C532.182 53.2221 531.048 49.7707 529.874 46.3193Z" fill="#933A67"/>
<path d="M534.568 62.4008C530.187 62.4008 527.332 58.9887 527.215 58.8318L529.014 57.3414L528.114 58.0866L529.014 57.3414C529.131 57.4983 532.065 60.9105 536.211 59.8515L536.798 62.1263C536.015 62.3224 535.272 62.4008 534.568 62.4008Z" fill="black"/>
<path d="M408.817 275.171L408.7 275.21C406.705 275.994 404.671 276.74 402.676 277.524C401.699 280.073 400.838 282.505 400.017 284.819C399.86 285.25 399.743 285.682 399.586 286.074C397.24 293.094 395.714 299.095 394.658 304.037C394.58 304.429 394.502 304.821 394.423 305.213C394.228 306.155 394.071 307.057 393.915 307.88C393.915 307.88 391.49 321.333 385.74 328.902C384.841 330.079 383.98 331.059 383.276 331.805C382.924 332.158 382.65 332.471 382.376 332.707C381.907 333.138 381.633 333.373 381.633 333.373C380.968 333.923 378.934 335.491 376.627 338.158C374.084 341.061 371.777 344.551 369.078 351.689C368.96 352.042 368.804 352.395 368.687 352.787C367.787 355.258 366.848 358.121 365.831 361.494C364.658 365.455 363.406 370.005 361.881 376.712C361.803 377.104 361.685 377.496 361.607 377.927C361.568 378.124 361.529 378.359 361.45 378.594C357.422 396.635 355.427 405.656 357.656 406.793C361.138 408.598 372.754 392.4 376.744 386.83C376.94 386.517 377.174 386.242 377.409 385.928C377.644 385.615 377.839 385.301 378.074 384.987C382.924 378.202 388.204 370.75 393.993 362.671C394.189 362.357 394.423 362.083 394.619 361.769C397.709 357.415 400.955 352.866 404.319 348.159C405.297 346.787 406.275 345.375 407.292 344.002C407.605 343.571 407.918 343.1 408.231 342.669C416.21 331.452 424.854 319.254 434.085 306.233C434.32 305.919 434.515 305.606 434.75 305.331C436.158 303.37 437.566 301.37 439.013 299.33C439.209 297.409 439.404 295.448 439.6 293.526C439.952 289.918 440.343 286.309 440.695 282.701C440.734 282.27 440.773 281.838 440.812 281.446C441.438 275.171 442.103 268.935 442.729 262.66C442.729 262.542 442.768 262.424 442.768 262.346L408.817 275.171Z" fill="#C85333"/>
<path d="M506.015 305.098C503.824 309.844 501.634 314.55 499.443 319.296L498.426 321.492C498.27 321.845 498.074 322.198 497.918 322.59C496.588 325.414 495.297 328.238 493.967 331.101C493.967 331.101 487.866 335.807 478.517 342.867C478.205 343.102 477.892 343.338 477.54 343.612C472.181 347.652 465.845 352.437 459 357.496C458.648 357.771 458.296 358.006 457.944 358.281C453.993 361.222 449.886 364.242 445.74 367.301C445.427 367.536 445.114 367.772 444.762 368.007C433.849 376.008 422.624 384.127 412.767 390.951C412.415 391.186 412.102 391.422 411.75 391.657C396.378 402.246 384.644 409.502 383.353 407.933C383.197 407.776 383.236 407.58 383.236 407.423C383.666 401.305 388.634 392.088 393.445 384.44C395.283 381.499 397.082 378.793 398.647 376.596C400.29 374.243 401.581 372.439 402.285 371.498C405.375 367.223 407.721 363.85 409.834 361.026C410.068 360.712 410.303 360.398 410.538 360.085C413.823 355.81 416.678 352.751 421.255 349.574C423.132 348.24 424.853 347.22 426.261 346.475C426.613 346.279 426.965 346.083 427.278 345.926C428.178 345.456 428.882 345.103 429.273 344.907C432.441 343.338 436.118 340.828 440.264 336.788C440.538 336.513 440.812 336.239 441.086 335.964C447.344 329.65 454.736 319.845 463.263 304.588C463.459 304.235 463.654 303.882 463.85 303.529C464.632 302.117 465.453 300.666 466.236 299.137C467.605 299.333 468.974 299.529 470.343 299.764C475.506 300.549 480.669 301.333 485.871 302.117C486.262 302.196 486.692 302.235 487.083 302.314C493.42 303.176 499.717 304.118 506.015 305.098Z" fill="#C85333"/>
<path d="M411.516 304.154C410.695 305.645 409.091 306.508 407.527 306.978C403.341 308.194 398.335 307.057 394.423 305.174C394.502 304.782 394.58 304.39 394.658 303.998C395.48 304.39 396.301 304.743 397.161 305.057C400.173 306.076 403.811 306.743 406.94 305.919C408.426 305.527 410.186 304.704 410.695 303.095C411.282 301.213 409.678 299.056 408.739 297.526C406.862 294.349 404.593 291.408 402.09 288.702C401.268 287.8 400.408 286.937 399.547 286.035C399.704 285.603 399.821 285.211 399.978 284.78C400.134 284.976 400.33 285.133 400.486 285.329C404.397 289.486 408.035 293.683 410.734 298.742C411.712 300.429 412.533 302.311 411.516 304.154Z" fill="#6343BA"/>
<path d="M440.734 281.369C440.695 281.801 440.656 282.232 440.617 282.625C438.896 283.134 437.253 283.88 435.728 284.821C430.526 288.037 425.832 294.351 429.704 300.391C430.995 302.391 432.755 303.921 434.672 305.255C434.437 305.568 434.242 305.882 434.007 306.157C430.448 303.607 427.084 300.391 427.006 295.763C426.927 290.233 431.621 285.644 436.119 283.213C437.644 282.428 439.17 281.801 440.734 281.369Z" fill="#6343BA"/>
<path d="M378.035 384.945C377.8 385.259 377.565 385.573 377.37 385.887C375.766 385.063 374.319 383.926 372.95 382.671C370.329 380.317 367.63 377.494 363.836 377.572C363.054 377.572 362.311 377.69 361.568 377.886C361.646 377.454 361.763 377.062 361.841 376.67C364.384 376.121 366.965 376.592 369.273 378.082C372.207 380.004 374.397 382.945 377.487 384.632C377.643 384.749 377.839 384.828 378.035 384.945Z" fill="#6343BA"/>
<path d="M393.445 384.361C395.284 381.42 397.083 378.714 398.647 376.517C397.983 379.184 396.614 381.694 394.462 383.577C394.11 383.851 393.797 384.126 393.445 384.361Z" fill="#6343BA"/>
<path d="M388.204 357.811C390.668 358.713 392.82 360.046 394.58 361.733C394.384 362.047 394.15 362.321 393.954 362.635C391.724 360.399 388.791 359.144 385.818 358.242C382.102 357.105 378.387 356.203 374.71 354.948C372.911 354.32 370.72 353.654 368.686 352.751C368.843 352.359 368.96 352.006 369.078 351.653C375.101 354.516 381.985 355.497 388.204 357.811Z" fill="#6343BA"/>
<path d="M408.191 342.632C407.878 343.063 407.566 343.534 407.253 343.965C406.901 344.005 406.549 344.044 406.197 344.083C399.469 344.515 394.15 340.514 388.987 336.788C386.953 335.298 384.723 333.807 382.415 332.709C382.65 332.474 382.963 332.16 383.315 331.807C384.801 332.513 386.249 333.415 387.618 334.357C392.585 337.808 397.513 342.397 403.811 342.907C405.258 342.985 406.744 342.907 408.191 342.632Z" fill="#6343BA"/>
<path d="M412.807 390.907C412.455 391.142 412.142 391.378 411.79 391.613C411.555 390.397 411.399 389.181 411.242 388.005C410.695 383.69 410.695 379.337 411.164 374.984C411.594 370.865 412.768 365.963 410.695 362.119C410.46 361.688 410.186 361.296 409.873 360.904C410.108 360.59 410.343 360.276 410.577 359.962C411.868 361.492 412.611 363.414 412.885 365.492C413.472 370.12 412.181 374.827 412.064 379.455C411.907 383.181 412.024 387.142 412.807 390.907Z" fill="#6343BA"/>
<path d="M445.74 367.26C445.428 367.495 445.115 367.73 444.763 367.966C443.237 365.495 441.36 363.181 439.482 361.141C436.705 358.121 433.693 355.337 430.916 352.317C429.234 350.513 427.435 348.552 426.223 346.355C426.575 346.159 426.927 345.963 427.24 345.806C428.765 348.63 431.307 351.062 433.42 353.219C437.761 357.69 442.455 361.965 445.74 367.26Z" fill="#6343BA"/>
<path d="M459.039 357.418C458.687 357.693 458.335 357.928 457.983 358.203C457.318 357.81 456.692 357.34 456.105 356.83C452.898 354.163 450.747 350.476 448.634 346.946C446.561 343.456 443.823 339.142 440.264 336.631C440.538 336.357 440.812 336.082 441.085 335.808C443.902 337.808 446.17 340.75 447.93 343.495C451.216 348.75 453.993 354.241 459.039 357.418Z" fill="#6343BA"/>
<path d="M478.517 342.784C478.204 343.02 477.892 343.255 477.54 343.529C475.779 339.804 475.193 335.45 475.036 331.41C474.684 324.351 475.427 316.428 471.203 310.31C469.247 307.486 466.431 305.564 463.302 304.466C463.498 304.113 463.693 303.76 463.889 303.407C466.196 304.231 468.309 305.486 470.108 307.212C479.808 316.546 473.393 331.607 478.517 342.784Z" fill="#6343BA"/>
<path d="M498.426 321.49C498.27 321.843 498.074 322.196 497.918 322.588C497.566 322.353 497.214 322.078 496.901 321.804C490.76 316.98 487.044 309.724 485.91 302.076C486.301 302.154 486.731 302.194 487.122 302.272C488.178 309.136 491.464 315.646 496.784 320.235C497.292 320.627 497.84 321.058 498.426 321.49Z" fill="#6343BA"/>
<path d="M526.668 49.0677C527.489 49.0677 528.154 48.4004 528.154 47.5773C528.154 46.7542 527.489 46.087 526.668 46.087C525.847 46.087 525.181 46.7542 525.181 47.5773C525.181 48.4004 525.847 49.0677 526.668 49.0677Z" fill="black"/>
<path d="M535.665 49.0669C536.485 49.0669 537.151 48.3996 537.151 47.5765C537.151 46.7534 536.485 46.0862 535.665 46.0862C534.844 46.0862 534.178 46.7534 534.178 47.5765C534.178 48.3996 534.844 49.0669 535.665 49.0669Z" fill="black"/>
<path d="M520.309 43.2983L526.981 40.8114L527.662 42.6495L520.99 45.1364L520.309 43.2983Z" fill="black"/>
<path d="M531.75 42.9962L531.98 41.0487L537.573 41.7123L537.344 43.6598L531.75 42.9962Z" fill="black"/>
<path fill-rule="evenodd" clip-rule="evenodd" d="M558.232 98.0578C574.582 106.294 589.445 113.785 591.362 125.983C592.3 131.983 589.836 137.435 584.517 144.455C582.969 144.251 581.247 144.024 579.423 143.783C573.875 143.049 567.394 142.193 562.065 141.514C563.173 140.114 564.274 138.715 565.372 137.32C567.105 135.119 568.829 132.928 570.553 130.767C565.097 128.434 559.651 126.11 554.205 123.787C548.758 121.463 543.311 119.139 537.854 116.805C536.954 119.668 536.016 122.531 534.999 125.433C531.557 135.356 527.763 144.73 523.812 153.476L523.695 153.711C523.991 154.626 524.255 155.525 524.518 156.418C524.673 156.942 524.826 157.464 524.986 157.986C525.611 160.143 526.667 163.791 527.763 168.301C528.545 171.517 529.484 175.635 530.344 180.498C530.07 182.067 529.836 184.773 530.657 187.872C531.166 189.833 531.987 191.402 532.652 192.5C532.691 192.766 532.731 193.042 532.773 193.327C533.025 195.056 533.328 197.124 533.63 199.481C533.692 199.938 533.743 200.395 533.795 200.858C533.841 201.269 533.887 201.685 533.943 202.109C533.943 202.109 534.96 211.09 535.351 219.405C536.055 234.269 535.194 244.859 534.256 251.801C533.864 254.546 533.473 256.742 533.16 258.389C530.892 270.116 527.372 287.569 514.229 304.434C508.871 311.337 503.434 316.2 499.522 319.298C500.618 316.925 501.713 314.562 502.809 312.198C503.904 309.836 504.999 307.473 506.094 305.101C500.148 304.199 494.213 303.297 488.277 302.394C482.342 301.492 476.406 300.59 470.461 299.688C473.707 294.55 478.127 288.589 484.072 282.549C487.984 278.588 491.856 275.293 495.415 272.626C493.694 261.056 492.482 247.329 492.834 231.955C493.108 220.621 494.125 210.345 495.494 201.246C487.319 218.071 477.58 236.152 465.924 254.938C457.123 269.057 448.283 282 439.6 293.766L442.768 262.586H442.729C442.729 262.527 442.739 262.478 442.749 262.429C442.758 262.38 442.768 262.331 442.768 262.272L408.896 275.176C410.186 271.058 412.729 265.018 417.618 258.978C421.021 254.781 424.541 251.84 427.397 249.8C432.755 231.014 438.231 215.287 442.768 203.168C446.132 194.108 449.026 187.166 451.608 181.518C453.681 177.008 455.558 173.321 457.436 170.066C458.805 167.713 460.135 165.556 461.504 163.438C464.516 158.771 467.566 154.692 470.383 151.162C471.4 149.868 472.417 148.652 473.394 147.514L473.434 147.475V145.867C455.832 154.966 448.127 154.378 444.567 151.279C435.337 143.239 444.88 110.255 464.516 94.7241C476.445 85.3113 491.269 82.6051 491.269 82.6051C496.159 81.7031 500.344 81.5854 503.316 81.6639V81.8207C503.629 86.4879 504.842 94.4496 509.653 102.137C510.592 103.666 511.687 105.157 512.938 106.608C514.581 108.53 516.302 110.138 517.984 111.51C519.862 102.647 521.074 96.6067 521.856 92.567C522.6 88.7235 522.913 86.684 523.03 85.7427V85.6643C524.751 86.0957 526.394 86.5271 528.036 86.9978C528.975 87.2331 529.914 87.5076 530.814 87.7822C531.034 87.8469 531.255 87.9121 531.479 87.9778C534.235 88.7876 537.255 89.6746 540.475 90.7629C545.833 92.567 551.818 94.8418 558.232 98.0578ZM471.204 122.293C469.493 124.882 467.782 127.47 466.08 130.059C468.935 128.255 471.791 126.451 474.685 124.607C474.724 124.372 474.754 124.137 474.783 123.901C474.812 123.666 474.842 123.431 474.881 123.195C475.272 120.215 475.78 117.312 476.328 114.528C474.627 117.116 472.915 119.705 471.204 122.293Z" fill="#6343BA"/>
<path d="M524.946 158.022C517.24 161.551 509.3 164.101 500.617 163.709C493.85 163.434 487.201 161.748 481.138 158.728C477.11 156.767 473.511 154.178 470.343 151.158C471.399 149.864 472.377 148.648 473.355 147.511C481.842 155.551 493.694 159.787 505.545 158.924C511.882 158.453 518.023 156.296 523.772 153.511C523.733 153.59 523.694 153.668 523.655 153.747C524.085 155.198 524.516 156.61 524.946 158.022Z" fill="#8ACFBF"/>
<path d="M497.292 201.008C498.544 199.4 499.835 197.792 501.086 196.184C501.595 195.557 501.673 194.733 501.086 194.105C500.578 193.596 499.522 193.478 499.013 194.105C497.762 195.714 496.471 197.322 495.219 198.93C494.711 199.557 494.633 200.381 495.219 201.008C495.728 201.518 496.784 201.636 497.292 201.008Z" fill="#56369B"/>
<path d="M457.044 213.679C452.389 238.898 429.078 249.095 427.317 249.801C432.676 230.975 438.152 215.248 442.689 203.168C446.092 194.109 448.947 187.167 451.529 181.519C455.167 188.147 459.625 199.717 457.044 213.679Z" fill="#8ACFBF"/>
<path d="M534.139 251.799C529.523 244.935 525.533 235.719 525.807 224.266C526.042 213.873 529.719 205.48 533.552 199.519C533.669 200.342 533.747 201.205 533.865 202.146C533.865 202.146 534.882 211.089 535.273 219.442C535.938 234.268 535.077 244.857 534.139 251.799Z" fill="#8ACFBF"/>
<path d="M545.167 77.0674C539.222 75.2632 527.136 88.2059 518.414 95.5792C514.072 99.2267 507.383 104.208 497.918 108.796C498.27 112.169 498.544 115.66 498.818 119.229C499.13 123.543 499.326 127.7 499.482 131.779C504.176 127.151 509.183 122.406 514.58 117.66C518.257 114.444 521.856 111.346 525.415 108.443C528.349 106.482 530.891 105.07 532.612 104.168C537.227 101.776 539.457 101.227 540.552 98.8345C541.139 97.5795 541.061 96.3244 540.865 93.932C540.63 90.4022 539.848 87.5783 539.144 85.5781C540.63 84.0878 542.117 82.5582 543.603 81.0678C544.776 81.5777 551.699 84.5976 554.594 82.0091C554.829 81.813 555.572 81.1462 555.415 80.5187C555.181 79.5382 553.108 79.4598 550.018 78.6754C547.28 77.9694 545.95 77.2635 545.167 77.0674Z" fill="#8ACFBF"/>
<path d="M584.478 144.445C581.505 148.367 577.633 152.759 572.939 158.093C561.596 170.918 550.409 180.174 541.726 186.449C542.469 186.214 543.525 185.861 544.816 185.43C551.074 183.351 553.695 182.214 554.477 183.194C554.673 183.469 554.673 183.782 554.673 184.057C554.673 184.214 554.634 184.331 554.634 184.449C555.807 184.292 556.629 184.371 556.785 184.92C557.059 185.861 556.277 186.842 555.26 187.704C555.299 187.783 555.338 187.822 555.377 187.901C555.729 189.038 554.477 190.254 553.147 191.234C553.343 191.313 553.499 191.43 553.617 191.548C553.695 191.626 553.969 191.94 553.969 192.372C554.008 193.078 553.304 193.94 549.745 195.588C546.42 197.156 544.777 197.941 543.017 198.019C542.939 198.019 542.821 198.019 542.743 198.019H542.665C541.804 198.019 539.692 197.902 537.345 196.764C537.228 196.686 537.111 196.647 536.993 196.568C536.876 196.529 536.798 196.45 536.681 196.411C536.681 196.411 536.641 196.411 536.641 196.372C535.272 195.588 534.06 194.489 533.043 193.195C532.886 192.999 532.691 192.764 532.534 192.528C529.523 188.293 529.796 183.743 529.875 182.841C530.227 178.017 532.886 174.879 533.943 173.703C534.021 173.624 534.099 173.546 534.138 173.507C535.898 171.703 538.128 170.251 540.709 169.349C540.748 169.349 540.787 169.31 540.827 169.31C545.951 162.407 551.231 155.426 556.629 148.406C558.428 146.092 560.188 143.778 561.948 141.503C569.106 142.444 578.259 143.66 584.478 144.445Z" fill="#8ACFBF"/>
<path d="M551.394 32.1975L593.829 30.2956L596.361 87.1079L553.926 89.0097L551.394 32.1975Z" fill="#C85333"/>
<path d="M560.62 40.8251L560.541 40.0407L586.239 38.1581L586.278 38.9425L560.62 40.8251Z" fill="url(#paint4_linear)"/>
<path d="M556.395 51.3385L556.356 50.5541L591.402 48.6715L591.48 49.4559L556.395 51.3385Z" fill="url(#paint5_linear)"/>
<path d="M591.323 61.1424L556.395 57.6518L556.473 56.8674L591.402 60.358L591.323 61.1424Z" fill="url(#paint6_linear)"/>
<path d="M557.959 67.178V66.3936L593.044 64.9817L593.083 65.7661L557.959 67.178Z" fill="url(#paint7_linear)"/>
<path d="M558.076 76.5558L557.998 75.7714L592.927 71.9278L593.005 72.7122L558.076 76.5558Z" fill="url(#paint8_linear)"/>
<defs>
<linearGradient id="paint0_linear" x1="334.125" y1="0.607914" x2="323.384" y2="77.8588" gradientUnits="userSpaceOnUse">
<stop offset="0.2162" stop-color="#2E5CE3"/>
<stop offset="0.8484" stop-color="white" stop-opacity="0.5"/>
</linearGradient>
<linearGradient id="paint1_linear" x1="453.491" y1="436.921" x2="491.457" y2="406.083" gradientUnits="userSpaceOnUse">
<stop offset="0.3743" stop-color="#8ACFBF" stop-opacity="0.8"/>
<stop offset="0.8811" stop-color="#6343BA"/>
</linearGradient>
<linearGradient id="paint2_linear" x1="79.1148" y1="232.849" x2="96.1284" y2="162.447" gradientUnits="userSpaceOnUse">
<stop offset="0.3743" stop-color="#8ACFBF" stop-opacity="0.8"/>
<stop offset="0.8811" stop-color="#6343BA"/>
</linearGradient>
<linearGradient id="paint3_linear" x1="390.527" y1="189.676" x2="558.197" y2="174.941" gradientUnits="userSpaceOnUse">
<stop offset="0.5605"/>
<stop offset="1" stop-color="#2E5CE5"/>
</linearGradient>
<linearGradient id="paint4_linear" x1="571.852" y1="43.2573" x2="572.546" y2="36.3456" gradientUnits="userSpaceOnUse">
<stop offset="0.1533" stop-color="white" stop-opacity="0.5"/>
<stop offset="0.8197" stop-color="#C85333"/>
</linearGradient>
<linearGradient id="paint5_linear" x1="579.305" y1="53.2517" x2="579.596" y2="47.8508" gradientUnits="userSpaceOnUse">
<stop offset="0.1533" stop-color="white" stop-opacity="0.5"/>
<stop offset="0.8197" stop-color="#C85333"/>
</linearGradient>
<linearGradient id="paint6_linear" x1="571.28" y1="62.9356" x2="572.414" y2="54.7987" gradientUnits="userSpaceOnUse">
<stop offset="0.1533" stop-color="white" stop-opacity="0.5"/>
<stop offset="0.8197" stop-color="#C85333"/>
</linearGradient>
<linearGradient id="paint7_linear" x1="586.098" y1="69.0914" x2="586.274" y2="64.2651" gradientUnits="userSpaceOnUse">
<stop offset="0.1533" stop-color="white" stop-opacity="0.5"/>
<stop offset="0.8197" stop-color="#C85333"/>
</linearGradient>
<linearGradient id="paint8_linear" x1="571.773" y1="78.3123" x2="573.221" y2="69.4469" gradientUnits="userSpaceOnUse">
<stop offset="0.1533" stop-color="white" stop-opacity="0.5"/>
<stop offset="0.8197" stop-color="#C85333"/>
</linearGradient>
</defs>
</svg>
